<?xml version="1.0" encoding="utf-8"?>
<!-- Generator: Adobe Illustrator 27.9.0, SVG Export Plug-In . SVG Version: 6.00 Build 0)  -->
<svg version="1.1" id="Capa_1" xmlns="http://www.w3.org/2000/svg" xmlns:xlink="http://www.w3.org/1999/xlink" x="0px" y="0px"
	 viewBox="0 0 57 57" style="enable-background:new 0 0 57 57;" xml:space="preserve">
<style type="text/css">
	.st0{fill:#F4E264;}
	.st1{fill:#A859B6;}
	.st2{fill:#9465B5;}
	.st3{fill:#643D7E;}
	.st4{fill:#774793;}
	.st5{fill:#B37BC6;}
	.st6{fill:#C886E8;}
</style>
<g>
	<g>
		<path class="st0" d="M23.5,23.5C23.5,23.5,23.5,23.5,23.5,23.5c-2.7,2.7-2.8,7.2-0.1,10c1.3,1.3,3.1,2,5,2.1c1.9,0,3.7-0.7,5-2
			c0,0,0,0,0,0c2.7-2.7,2.8-7.2,0-10C30.7,20.8,26.3,20.8,23.5,23.5z"/>
		<g>
			<path class="st0" d="M37.4,34.9c-1-0.3-1.9-0.7-2.6-1.5c-0.9,1.1-2,2-3.5,2.6c0.1,0.1,0.1,0.2,0.2,0.3c0.2,0.4,0.5,0.7,0.7,1
				c0.6,0.7,1.5,1,2.9,0.9c1-0.1,1.7,0.4,2.1,1.3c0.1,0.3,0.3,0.6,0.6,0.9c0.8,1.1,2.3,1.8,3.7,1.7c-1.3-0.8-1.9-2.1-1.7-4
				C39.8,36.4,39,35.4,37.4,34.9z"/>
			<path class="st0" d="M22.7,10.7c0.8,1.2,0.8,2.5,0.1,3.8c-0.1,0.1-0.2,0.3-0.2,0.4l-0.1,0.2c-0.6,1.2-0.5,2.3,0.4,3.4
				c0.2,0.2,0.4,0.4,0.6,0.6c0.6,0.6,1.3,1.3,1.5,2.3c1.3-0.6,2.7-0.9,4.2-0.8c0.2-1.5-0.5-2.7-2-3.4c-1.3-0.6-1.8-1.4-1.8-2.7
				C25.4,12.8,24.3,11.4,22.7,10.7z"/>
			<path class="st0" d="M38.8,12.9c-0.5,1.5-1.7,2.3-3.5,2.6c-1.6,0.3-2.3,1.1-2.6,2.8l0,0.3c-0.1,0.9-0.2,1.9-0.9,2.7
				c1.3,0.6,2.3,1.5,3.2,2.8c0.8-0.4,1.3-1,1.4-1.7c0.1-0.8,0-1.6-0.1-2.3c-0.1-1,0-1.8,0.8-2.4C38.7,16.4,39.2,14.8,38.8,12.9z"/>
			<path class="st0" d="M29,39.3c-0.3-0.7-0.6-1.7-0.4-2.8c-1.5,0-2.9-0.4-4.1-1.1c-0.8,1.2-0.7,2.5,0.1,3.6
				c0.1,0.1,0.2,0.2,0.3,0.3c0.1,0.2,0.3,0.3,0.4,0.5c0.5,0.7,0.6,1.4,0.3,2.1c-0.3,0.6-0.5,1.2-0.5,1.7c-0.2,1.3,0.2,2.6,1,3.4
				c-0.1-1.5,0.4-2.6,1.6-3.5C29.3,42.2,29.7,41,29,39.3z"/>
			<path class="st0" d="M16.3,37.2c0.2,0.1,0.3,0.1,0.5,0.1c1.4,0.3,2.5-0.1,3.3-1.2c0.1-0.2,0.2-0.4,0.3-0.5c0.5-0.8,1-1.6,2-2
				c-0.9-1.1-1.5-2.4-1.7-3.9c-1.5,0.2-2.4,1-2.8,2.5c0,0.2-0.1,0.3-0.1,0.5c0,0.2-0.1,0.3-0.1,0.5c-0.2,0.8-0.7,1.2-1.5,1.5
				c-0.8,0.2-1.5,0.6-2.3,1.1c-0.7,0.5-1.2,1.5-1.4,2.4C13.5,37,14.8,36.7,16.3,37.2z"/>
			<path class="st0" d="M43,25.8c-1.3-1.1-2.5-1.2-3.9-0.2c-0.9,0.6-1.7,1.1-2.8,1.1c0.3,1.4,0.3,2.8-0.1,4.3c0.1,0,0.2,0,0.3,0
				c0.4,0.1,0.7,0.1,1.1,0.1c1,0,1.8-0.5,2.6-1.6c0.1-0.1,0.2-0.3,0.3-0.4c0.6-0.6,1.3-0.8,2.2-0.5c1.4,0.4,3.4,0,4.6-1.7
				C45.7,27.4,44.3,27,43,25.8z"/>
			<path class="st0" d="M17.8,26.6c0.9-0.1,1.9-0.2,2.9,0.2c0.3-1.4,1-2.7,2-3.8c-1-1-2.3-1.3-3.6-0.7c-0.2,0.1-0.3,0.2-0.5,0.2
				l-0.3,0.1c-0.9,0.4-1.6,0.3-2.4-0.3c-1.1-0.9-2.4-1.3-3.8-1c-0.4,0.1-0.8,0.2-1.1,0.4c0,0,0,0,0,0c1.5,0.2,2.6,1,3.2,2.6
				C14.9,26.3,15.9,26.9,17.8,26.6z"/>
			<path class="st0" d="M31.4,37.5c-0.2-0.3-0.4-0.7-0.7-1c-0.1-0.1-0.1-0.2-0.2-0.3c-0.5,0-0.8,0.1-0.9,0.3
				c-0.2,0.2-0.2,0.5-0.2,0.9c0,0.9,0.3,1.7,1,2.5c0.5,0.7,1.2,1,2.1,1.1c-0.9-0.9-1.2-1.9-0.9-3.1C31.5,37.8,31.5,37.7,31.4,37.5z"
				/>
			<path class="st0" d="M21.8,34.9C21.8,34.9,21.8,34.9,21.8,34.9c-0.2,0.2-0.3,0.3-0.4,0.5l-0.1,0.1c-0.9,1.2-1,2.7-0.2,3.9
				c0.1-1.5,1.1-2.2,1.9-2.7c0,0,0.1-0.1,0.1-0.1c0.2-0.5,0.3-0.9,0.5-1.4l0.1-0.3C22.9,34.1,22.7,34.1,21.8,34.9z"/>
			<path class="st0" d="M37.7,32.1c-0.1-0.1-0.2-0.1-0.2-0.1c-0.5-0.1-0.9-0.1-1.4-0.2l-0.3,0c-0.5,1-0.4,1.3,0.4,1.7
				c0.7,0.4,1.6,0.6,2.4,0.7c0.8,0.1,1.5-0.3,2.1-0.9C39.6,33.4,38.6,33,37.7,32.1z"/>
			<path class="st0" d="M39.8,22C39.8,22,39.7,22,39.8,22c-0.4,0.5-0.8,0.9-1.3,1.1c-1.4,0.4-2.3,0.9-3,1.7c0,0,0,0,0,0
				c0.4,1,0.5,1.1,1.3,1c1.3-0.2,2.8-1.5,3-2.8C39.8,22.6,39.8,22.3,39.8,22z"/>
			<path class="st0" d="M29.9,18.7c0,0.1-0.1,0.2-0.1,0.3c0,0.4,0.1,0.8,0.1,1.3c0,0.1,0,0.3,0,0.4l0.2,0.1c0.8,0.2,0.9,0.1,1.3-0.6
				c0.5-0.9,0.5-1.9,0.2-2.9c-0.3-1-0.7-1.5-1.3-1.7C30.8,16.6,30.7,17.6,29.9,18.7z"/>
			<path class="st0" d="M16.7,27.9c-0.7,0.4-1.1,1-1.3,1.6c0.9-0.6,2-0.7,3.2-0.2c0.1,0,0.2,0.1,0.3,0c0.4-0.1,0.8-0.3,1.3-0.5
				c0.1,0,0.2-0.1,0.3-0.1c0-0.1,0-0.3,0-0.5c0.1-0.4,0-0.5-0.5-0.7C19,27,17.9,27.2,16.7,27.9z"/>
			<path class="st0" d="M23.8,20.8c-0.4-0.8-1-1.4-2-1.8c-0.7-0.3-1.4-0.3-2.1-0.1c0.3,0.1,0.6,0.2,0.8,0.4c0.4,0.4,0.6,0.9,0.9,1.3
				c0.1,0.2,0.2,0.4,0.3,0.5c0,0.1,0.1,0.1,0.1,0.2c0,0,0.1,0.1,0.1,0.1c0.4,0.2,0.8,0.5,1.2,0.7c0.1,0.1,0.2,0.1,0.3,0.2
				C24.2,21.8,24.3,21.7,23.8,20.8z"/>
		</g>
	</g>
	<g>
		<g>
			<g>
				<g>
					<g>
						<path class="st1" d="M17.3,9c0.2,0.2,0.3,0.4,0.5,0.5c0.1,0.1,0.3,0.2,0.4,0.2c0.6,0.2,1.1-0.2,1.1-0.8c0-0.4-0.2-0.8-0.5-1
							c-0.6-0.5-1.3-0.5-1.9-0.1c-0.7,0.4-1,1-1.1,1.8c-0.1,0.8,0.1,1.5,0.5,2.2c0.5,0.9,1.3,1.6,2.1,2.1c0,0,0,0,0.1,0.1
							c0,0-0.1,0-0.1,0c-0.8-0.2-1.5-0.6-2-1.2c-0.7-0.7-1.1-1.5-1.2-2.4c-0.2-1.1,0.1-2.1,0.8-3c0.7-0.8,1.6-1.1,2.7-0.9
							c1,0.2,1.7,1.1,1.7,2.1c0,0.8-0.4,1.5-1.1,1.7c-1,0.4-1.8-0.4-1.8-1.2C17.3,9.1,17.3,9,17.3,9z"/>
						<path class="st2" d="M13.8,11c-0.2-0.2-0.5-0.3-0.7-0.5c-0.4-0.4-0.8-0.9-1-1.5c-0.3-0.9-0.3-1.7,0-2.6
							c0.1-0.4,0.3-0.8,0.5-1.2c0,0,0,0,0,0c0.1,0.4,0.4,0.7,0.7,0.9c0.4,0.3,0.7,0.6,0.8,1.1c0.2,0.4,0.2,0.8,0.2,1.2
							c0,0.5,0,0.9,0,1.4c0,0.2,0,0.4,0.1,0.7c-0.2-0.1-0.8-0.8-1.1-1.3c-0.3-0.5-0.5-1.1-0.6-1.6c-0.1,0.3,0,1.1,0.2,1.8
							C13.2,10,13.5,10.5,13.8,11C13.9,11,13.8,11,13.8,11z"/>
						<path class="st3" d="M14,11.7c-0.7,0.2-1.4,0.3-2.1-0.1c-0.2-0.2-0.4-0.4-0.5-0.6c-0.2-0.4-0.4-0.7-0.6-1.1c0.2,0,0.4,0,0.5,0
							c0.5,0.1,0.9,0.4,1.3,0.7c0.3,0.3,0.5,0.5,0.8,0.8C13.6,11.5,13.8,11.5,14,11.7z"/>
						<path class="st4" d="M12,13.4c0.4-0.2,0.6-0.6,0.9-0.9c0.5-0.5,1-0.6,1.6-0.5c0.4,0.1,0.8,0.3,1.1,0.5c0,0,0,0,0,0
							c0,0,0,0-0.1,0c-0.4-0.1-0.8,0.1-1.1,0.3c-0.3,0.2-0.5,0.4-0.8,0.5c-0.4,0.2-0.9,0.2-1.3,0.1C12.2,13.5,12.1,13.4,12,13.4z"/>
						<path class="st2" d="M17,11.7c0.9,1,2,1.6,3.3,1.8c-0.3,0.2-1.2,0.3-1.9-0.1C17.6,13,17,12.2,17,11.7z"/>
						<path class="st5" d="M16.2,13.3c0.1,0.1,0.1,0.3,0,0.4c-0.1,0.1-0.3,0.1-0.4,0c-0.1-0.1-0.1-0.3,0.1-0.4
							C15.9,13.1,16.1,13.2,16.2,13.3z"/>
						<path class="st6" d="M16.6,14.3c-0.1,0.1-0.3,0.1-0.4,0c-0.1-0.1-0.1-0.3,0-0.4c0.1-0.1,0.3-0.1,0.4,0
							C16.7,14,16.7,14.2,16.6,14.3z"/>
						<path class="st6" d="M11.5,13c-0.1,0.1-0.3,0.1-0.4,0c-0.1-0.1-0.1-0.3,0-0.4c0.1-0.1,0.3-0.1,0.4,0
							C11.6,12.8,11.6,12.9,11.5,13z"/>
						<path class="st2" d="M12,12.6c-0.1,0.1-0.2,0.1-0.3,0c-0.1-0.1-0.1-0.2,0-0.3c0.1-0.1,0.3-0.1,0.3,0
							C12.1,12.4,12.1,12.6,12,12.6z"/>
						<path class="st4" d="M17.1,14.4c0.1,0.1,0.1,0.2,0,0.3c-0.1,0.1-0.2,0.1-0.3,0c-0.1-0.1-0.1-0.2,0-0.3
							C16.9,14.3,17,14.3,17.1,14.4z"/>
						<path class="st6" d="M17.3,14.6c0.1-0.1,0.2-0.1,0.3,0c0.1,0.1,0.1,0.2,0,0.3c-0.1,0.1-0.2,0-0.3,0
							C17.2,14.8,17.2,14.7,17.3,14.6z"/>
						<path class="st6" d="M12.6,12.1c0.1,0.1,0.1,0.2,0,0.3c-0.1,0.1-0.2,0-0.3,0c-0.1-0.1,0-0.2,0-0.3
							C12.4,12,12.5,12.1,12.6,12.1z"/>
					</g>
				</g>
			</g>
			<g>
				<g>
					<path class="st3" d="M22.2,8.5c0.3-0.4,0.8-0.5,1.2-0.3c0.4,0.2,0.5,0.8,0.3,1.2c-0.2,0.4-0.8,0.5-1.2,0.3
						C22,9.5,21.9,8.9,22.2,8.5z"/>
					<path class="st6" d="M21.4,6.9C21.3,6.4,21.6,6.1,22,6c0.4-0.1,0.8,0.2,0.9,0.6c0.1,0.4-0.2,0.8-0.6,0.9
						C21.9,7.6,21.5,7.3,21.4,6.9z"/>
					<path class="st2" d="M21.3,4.2c0.2-0.3,0.6-0.4,0.9-0.2c0.3,0.2,0.4,0.5,0.2,0.8c-0.2,0.3-0.5,0.4-0.8,0.2
						C21.1,4.8,21.1,4.5,21.3,4.2z"/>
					<path class="st1" d="M21.9,2.2c0.2,0.2,0.3,0.5,0.2,0.7c-0.2,0.3-0.5,0.3-0.7,0.2c-0.3-0.2-0.3-0.5-0.2-0.7
						C21.4,2.1,21.7,2.1,21.9,2.2z"/>
					<path class="st5" d="M22.1,0.7c0.2,0.1,0.3,0.4,0.1,0.6c-0.1,0.2-0.4,0.3-0.6,0.1c-0.2-0.1-0.3-0.4-0.1-0.6
						C21.7,0.6,21.9,0.5,22.1,0.7z"/>
				</g>
			</g>
			<g>
				<path class="st5" d="M13.7,16.7c-0.2-0.2-0.3-0.4-0.5-0.5c-0.2-0.2-0.5-0.3-0.8-0.3c-0.2,0-0.3,0.1-0.2,0.3
					c0.2,0.4,0.6,0.7,1.1,0.8c0.1,0,0.1,0,0.2,0c0,0,0,0,0,0c-0.2,0-0.3,0-0.5,0c-0.5-0.1-1-0.4-1.4-0.8c-0.3-0.3-0.4-0.6-0.5-1
					c0-0.1,0-0.1,0.1-0.1c0.5-0.1,1,0,1.5,0.3C13.1,15.7,13.5,16.1,13.7,16.7C13.7,16.7,13.7,16.7,13.7,16.7z"/>
				<path class="st3" d="M14.1,16.6c0-0.1-0.1-0.2-0.1-0.2c-0.2-0.6-0.1-1.2,0.4-1.7c0.1-0.1,0.2-0.1,0.3,0c0.3,0.5,0.3,1.2,0,1.7
					c0,0.1-0.1,0.1-0.2,0.2c0-0.1,0.1-0.3,0.1-0.4c0-0.1,0-0.6-0.1-0.6c-0.1-0.1-0.1,0-0.2,0.1c-0.2,0.3-0.2,0.6-0.2,0.9
					C14.1,16.5,14.1,16.5,14.1,16.6C14.1,16.6,14.1,16.6,14.1,16.6z"/>
				<path class="st1" d="M13.6,17.8c-0.1,0.2-0.3,0.4-0.5,0.6c-0.3,0.3-0.7,0.3-1.1,0.3c-0.3,0-0.4-0.1-0.2-0.4
					c0.3-0.6,1.1-0.9,1.7-0.8c-0.2,0-0.3,0.1-0.4,0.1c-0.2,0.1-0.4,0.2-0.5,0.4c-0.1,0.1-0.1,0.2,0.1,0.2c0.3,0,0.6-0.1,0.8-0.3
					C13.5,17.8,13.5,17.8,13.6,17.8C13.5,17.8,13.5,17.8,13.6,17.8z"/>
				<path class="st6" d="M15.6,16.5c-0.3,0.3-0.6,0.4-1,0.4c-0.1,0-0.1,0-0.1-0.1c0.2-0.4,0.5-0.7,0.9-0.7c0.3,0,0.3,0,0.2,0.3
					C15.7,16.4,15.6,16.5,15.6,16.5z"/>
				<path class="st4" d="M13.8,19.1c0,0-0.1,0.1-0.2,0.1c0-0.1-0.1-0.2-0.1-0.3c-0.1-0.4,0-0.8,0.3-1.1c0.1-0.1,0.1-0.1,0.2,0
					C14.1,18.3,14.1,18.7,13.8,19.1z"/>
				<path class="st4" d="M15.4,17.4c0,0.1,0.1,0.1,0.1,0.2c0,0-0.1,0.1-0.2,0.1c-0.2,0.1-0.5,0-0.7-0.2c-0.1-0.1-0.1-0.1,0-0.2
					C15,17.2,15.2,17.2,15.4,17.4z"/>
				<path class="st6" d="M14.6,17.9c0.2,0.1,0.2,0.3,0.3,0.5c0,0.1,0,0.1,0,0.2c0,0-0.1,0-0.2,0c-0.2-0.1-0.3-0.3-0.3-0.6
					c0-0.1,0-0.2,0.2-0.1C14.5,17.8,14.6,17.8,14.6,17.9z"/>
			</g>
			<g>
				<path class="st6" d="M7.8,14.4c-0.2-0.2-0.4-0.5-0.6-0.7c-0.3-0.2-0.6-0.4-1-0.4c-0.3,0-0.4,0.1-0.3,0.4
					c0.3,0.6,0.8,0.9,1.4,1.1c0.1,0,0.2,0,0.2,0.1c0,0,0,0,0,0.1c-0.2,0-0.4,0-0.7,0c-0.7-0.2-1.3-0.5-1.8-1
					c-0.3-0.4-0.5-0.8-0.6-1.3c0-0.1,0-0.2,0.1-0.2c0.7-0.1,1.3,0,1.9,0.4C7,13.1,7.5,13.6,7.8,14.4C7.7,14.3,7.7,14.4,7.8,14.4z"/>
				<path class="st4" d="M8.2,14.2c-0.1-0.1-0.2-0.2-0.2-0.3c-0.2-0.8-0.1-1.5,0.5-2.1c0.2-0.2,0.2-0.2,0.4,0
					c0.4,0.7,0.4,1.6-0.1,2.2c-0.1,0.1-0.1,0.1-0.2,0.2c0.1-0.2,0.1-0.4,0.2-0.5c0.1-0.1,0-0.7-0.2-0.8c-0.1-0.1-0.2,0-0.2,0.1
					c-0.2,0.3-0.3,0.7-0.2,1.1C8.2,14.1,8.3,14.1,8.2,14.2C8.3,14.2,8.3,14.2,8.2,14.2z"/>
				<path class="st5" d="M7.6,15.7C7.4,16,7.2,16.2,7,16.4c-0.4,0.3-0.9,0.4-1.4,0.4c-0.4,0-0.5-0.1-0.3-0.5c0.4-0.7,1.4-1.2,2.2-1
					c-0.2,0.1-0.4,0.1-0.5,0.1c-0.3,0.1-0.5,0.3-0.7,0.5c-0.1,0.1-0.1,0.2,0.1,0.2c0.4,0,0.8-0.1,1.1-0.4
					C7.5,15.8,7.5,15.8,7.6,15.7C7.6,15.7,7.6,15.7,7.6,15.7z"/>
				<path class="st4" d="M10.2,14.1c-0.3,0.4-0.7,0.5-1.2,0.5c-0.1,0-0.1-0.1-0.1-0.2c0.2-0.5,0.6-0.9,1.2-0.9
					c0.3,0,0.4,0.1,0.2,0.4C10.3,14,10.3,14.1,10.2,14.1z"/>
				<path class="st3" d="M7.9,17.4c-0.1,0-0.2,0.1-0.3,0.2c-0.1-0.1-0.1-0.2-0.2-0.3c-0.1-0.5,0.1-1.1,0.4-1.3
					c0.1-0.1,0.2-0.1,0.2,0C8.3,16.4,8.3,16.9,7.9,17.4z"/>
				<path class="st1" d="M10,15.2c0,0.1,0.1,0.2,0.1,0.2c0,0.1-0.1,0.1-0.2,0.1c-0.3,0.1-0.6,0-0.8-0.2c-0.1-0.1-0.1-0.2,0.1-0.2
					C9.4,15,9.7,15,10,15.2z"/>
				<path class="st6" d="M8.9,15.8c0.2,0.2,0.3,0.4,0.3,0.6c0,0.1,0,0.2-0.1,0.2c0,0-0.1,0-0.2,0c-0.3-0.2-0.4-0.4-0.4-0.8
					c0-0.2,0-0.2,0.2-0.1C8.8,15.8,8.9,15.8,8.9,15.8z"/>
			</g>
		</g>
		<g>
			<g>
				<g>
					<g>
						<path class="st1" d="M5.8,24.8c0.3,0,0.5,0,0.7,0c0.1,0,0.3-0.1,0.4-0.2c0.5-0.3,0.5-0.9,0.1-1.3C6.7,23,6.3,23,5.9,23
							c-0.7,0.1-1.2,0.7-1.3,1.4c-0.1,0.8,0.2,1.5,0.7,2c0.6,0.6,1.3,0.9,2.1,1c1,0.2,2,0,3-0.3c0,0,0.1,0,0.1,0
							c0,0-0.1,0.1-0.1,0.1c-0.7,0.5-1.4,0.8-2.2,0.8c-1,0.1-1.9-0.1-2.7-0.6c-1-0.6-1.6-1.4-1.8-2.5c-0.2-1.1,0.1-2,1-2.7
							c0.8-0.6,1.9-0.6,2.7,0C8,22.8,8.2,23.6,8,24.3c-0.3,1-1.5,1.2-2.1,0.7C5.9,24.9,5.9,24.9,5.8,24.8z"/>
						<path class="st2" d="M5.3,28.8C5,28.9,4.7,29,4.4,29c-0.6,0.1-1.2,0.1-1.8-0.1c-0.9-0.3-1.5-0.9-2-1.6
							c-0.2-0.3-0.4-0.7-0.6-1.1c0,0,0,0,0,0c0.4,0.1,0.8,0.1,1.2,0c0.5-0.1,0.9-0.1,1.4,0c0.4,0.1,0.7,0.4,1.1,0.6
							c0.4,0.3,0.7,0.6,1.1,0.9c0.2,0.1,0.4,0.2,0.6,0.4c-0.2,0.1-1.1,0.1-1.7,0c-0.6-0.1-1.1-0.3-1.7-0.5c0.2,0.2,0.9,0.7,1.6,1
							C4,28.7,4.6,28.8,5.3,28.8C5.3,28.8,5.3,28.8,5.3,28.8z"/>
						<path class="st3" d="M5.9,29.1c-0.3,0.7-0.6,1.3-1.4,1.6c-0.3,0.1-0.5,0.1-0.8,0c-0.4-0.1-0.8-0.2-1.2-0.3
							c0.1-0.2,0.2-0.3,0.4-0.4c0.4-0.3,0.9-0.5,1.4-0.6c0.4,0,0.8-0.1,1.1-0.2C5.5,29.3,5.7,29.2,5.9,29.1z"/>
						<path class="st4" d="M6,31.8C6,31.4,5.9,31,5.8,30.6C5.8,29.9,6,29.4,6.5,29c0.3-0.3,0.7-0.4,1.1-0.5c0,0,0,0,0,0c0,0,0,0,0,0
							c-0.3,0.3-0.4,0.6-0.5,1c0,0.3,0,0.7-0.1,1c-0.1,0.5-0.4,0.8-0.8,1.1C6.2,31.7,6.1,31.7,6,31.8z"/>
						<path class="st2" d="M7.8,26.8c1.3-0.1,2.5-0.6,3.5-1.4c0,0.4-0.5,1.1-1.3,1.4C9.2,27.2,8.2,27.1,7.8,26.8z"/>
						<path class="st5" d="M8.5,28.4c0.2,0,0.3,0.1,0.3,0.3c0,0.2-0.1,0.3-0.3,0.3c-0.2,0-0.3-0.1-0.3-0.3
							C8.2,28.6,8.4,28.4,8.5,28.4z"/>
						<path class="st6" d="M9.5,28.8c0,0.1-0.1,0.3-0.3,0.3C9.1,29,9,28.9,9,28.8c0-0.1,0.1-0.3,0.3-0.3C9.4,28.5,9.5,28.6,9.5,28.8
							z"/>
						<path class="st6" d="M5.4,32c0,0.2-0.1,0.3-0.2,0.3c-0.1,0-0.3-0.1-0.3-0.3c0-0.1,0.1-0.3,0.3-0.3C5.2,31.7,5.4,31.8,5.4,32z"
							/>
						<path class="st2" d="M5.4,31.3c0,0.1-0.1,0.2-0.2,0.2c-0.1,0-0.2-0.1-0.2-0.2C4.9,31.2,5,31,5.2,31
							C5.3,31.1,5.4,31.2,5.4,31.3z"/>
						<path class="st4" d="M9.9,28.4c0.1,0,0.2,0.1,0.2,0.2c0,0.1-0.1,0.2-0.2,0.2c-0.1,0-0.2-0.1-0.2-0.2
							C9.7,28.5,9.8,28.4,9.9,28.4z"/>
						<path class="st6" d="M10.2,28.4c0-0.1,0.1-0.2,0.2-0.2c0.1,0,0.2,0.1,0.2,0.2c0,0.1-0.1,0.2-0.2,0.2
							C10.3,28.6,10.2,28.5,10.2,28.4z"/>
						<path class="st6" d="M5.4,30.5c0.1,0,0.2,0.1,0.2,0.2c0,0.1-0.1,0.2-0.2,0.2c-0.1,0-0.2-0.1-0.2-0.2
							C5.2,30.6,5.3,30.5,5.4,30.5z"/>
					</g>
				</g>
			</g>
			<g>
				<g>
					<path class="st3" d="M8.5,20.8c-0.2-0.5,0.1-0.9,0.5-1.1c0.4-0.1,0.9,0.1,1.1,0.5c0.2,0.4-0.1,1-0.6,1.1
						C9.2,21.5,8.7,21.2,8.5,20.8z"/>
					<path class="st6" d="M6.8,20.4c-0.4-0.2-0.5-0.6-0.4-1C6.6,19,7,18.8,7.4,19c0.4,0.2,0.5,0.7,0.4,1.1
						C7.6,20.4,7.1,20.6,6.8,20.4z"/>
					<path class="st2" d="M4.6,18.8c-0.1-0.3,0.1-0.7,0.4-0.8c0.3-0.1,0.6,0,0.7,0.3c0.1,0.4,0,0.7-0.3,0.8
						C5,19.3,4.7,19.2,4.6,18.8z"/>
					<path class="st1" d="M3.4,17.1C3.7,17,4,17.1,4.1,17.4c0.1,0.3,0,0.6-0.3,0.7c-0.3,0.1-0.6,0-0.7-0.3C3,17.5,3.2,17.2,3.4,17.1
						z"/>
					<path class="st5" d="M2.3,15.9c0.2-0.1,0.5,0,0.5,0.3c0.1,0.2,0,0.5-0.3,0.5c-0.2,0.1-0.5,0-0.5-0.3C2,16.3,2.1,16,2.3,15.9z"
						/>
				</g>
			</g>
			<g>
				<path class="st5" d="M9.6,32.5c-0.2,0-0.5,0-0.7,0.1c-0.3,0.1-0.5,0.2-0.7,0.4c-0.2,0.2-0.1,0.3,0.1,0.3c0.5,0.1,0.9,0,1.3-0.3
					c0.1,0,0.1-0.1,0.1-0.1c0,0,0,0,0,0c-0.1,0.1-0.2,0.3-0.3,0.4C9,33.7,8.5,33.9,7.9,34c-0.4,0-0.8-0.1-1.1-0.2
					c-0.1,0-0.1-0.1,0-0.2c0.3-0.5,0.6-0.8,1.2-1C8.5,32.4,9,32.3,9.6,32.5C9.6,32.5,9.6,32.5,9.6,32.5z"/>
				<path class="st3" d="M9.8,32.2c-0.1,0-0.2,0-0.3,0c-0.6-0.3-1-0.6-1.1-1.3c0-0.2,0-0.2,0.2-0.2c0.6,0.1,1.1,0.5,1.3,1.1
					c0,0.1,0,0.1,0,0.2c-0.1-0.1-0.2-0.2-0.2-0.4c-0.1-0.1-0.5-0.3-0.6-0.3c-0.1,0-0.1,0.1-0.1,0.2c0.1,0.3,0.3,0.5,0.6,0.7
					C9.7,32.1,9.7,32.1,9.8,32.2C9.8,32.1,9.8,32.1,9.8,32.2z"/>
				<path class="st1" d="M10.4,33.3c0.1,0.2,0.1,0.5,0.1,0.7c0,0.4-0.2,0.8-0.4,1.1c-0.2,0.2-0.3,0.2-0.4-0.1
					c-0.3-0.6-0.1-1.4,0.5-1.8c-0.1,0.1-0.1,0.3-0.2,0.4c-0.1,0.2-0.1,0.5,0,0.7c0,0.1,0.1,0.1,0.2,0c0.2-0.2,0.3-0.5,0.3-0.9
					C10.4,33.4,10.4,33.4,10.4,33.3C10.4,33.3,10.4,33.3,10.4,33.3z"/>
				<path class="st6" d="M10.7,30.9c0.1,0.4,0,0.7-0.3,1c-0.1,0.1-0.1,0.1-0.1,0c-0.2-0.4-0.2-0.8,0-1.2c0.1-0.2,0.2-0.2,0.3,0
					C10.7,30.8,10.7,30.9,10.7,30.9z"/>
				<path class="st4" d="M11.6,33.9c0,0.1,0,0.2,0,0.3c-0.1,0-0.2,0-0.3-0.1c-0.3-0.1-0.6-0.6-0.6-0.9c0-0.1,0-0.1,0.1-0.1
					C11.2,33.2,11.5,33.4,11.6,33.9z"/>
				<path class="st4" d="M11.2,31.6c0.1,0,0.2,0,0.2,0c0,0,0,0.1,0,0.2c-0.1,0.2-0.3,0.4-0.5,0.4c-0.1,0-0.2,0-0.1-0.1
					C10.8,31.8,11,31.7,11.2,31.6z"/>
				<path class="st6" d="M11.1,32.5c0.2,0,0.4,0,0.5,0.1c0,0,0.1,0.1,0.1,0.1c0,0-0.1,0.1-0.1,0.1c-0.2,0.1-0.5,0.1-0.7-0.1
					c-0.1-0.1-0.1-0.1,0-0.2C11,32.6,11.1,32.6,11.1,32.5z"/>
			</g>
			<g>
				<path class="st6" d="M4.1,35.7c-0.3,0-0.6,0-0.9,0.1c-0.4,0.1-0.7,0.3-0.9,0.5c-0.2,0.2-0.2,0.4,0.1,0.4c0.6,0.1,1.2,0,1.7-0.4
					c0.1,0,0.1-0.1,0.2-0.1c0,0,0,0,0,0c-0.1,0.2-0.3,0.3-0.4,0.5c-0.6,0.4-1.2,0.7-1.9,0.8c-0.5,0-1-0.1-1.4-0.3
					c-0.1-0.1-0.1-0.1-0.1-0.2c0.3-0.6,0.8-1,1.5-1.2C2.6,35.5,3.3,35.4,4.1,35.7C4.1,35.7,4.1,35.7,4.1,35.7z"/>
				<path class="st4" d="M4.3,35.2c-0.1,0-0.3,0-0.4-0.1c-0.7-0.3-1.3-0.8-1.4-1.7c0-0.3,0-0.3,0.3-0.3c0.8,0.1,1.5,0.7,1.7,1.4
					c0,0.1,0.1,0.2,0,0.3c-0.1-0.2-0.2-0.3-0.3-0.5c-0.1-0.1-0.6-0.4-0.7-0.4c-0.1,0-0.1,0.1-0.1,0.2c0.1,0.4,0.4,0.7,0.8,0.9
					C4.2,35.1,4.2,35.2,4.3,35.2C4.3,35.2,4.3,35.2,4.3,35.2z"/>
				<path class="st5" d="M5.1,36.7c0.1,0.3,0.2,0.6,0.2,0.9c0,0.5-0.2,1-0.5,1.4c-0.3,0.3-0.4,0.3-0.6-0.1c-0.3-0.7-0.1-1.8,0.6-2.3
					c-0.1,0.2-0.2,0.3-0.2,0.5c-0.1,0.3-0.1,0.6,0,0.9c0.1,0.2,0.1,0.2,0.2,0.1C5,37.6,5.1,37.3,5,36.8C5,36.8,5,36.8,5.1,36.7
					C5,36.7,5,36.7,5.1,36.7z"/>
				<path class="st4" d="M5.4,33.6c0.1,0.5,0,0.9-0.4,1.3C5,35,4.9,35,4.9,34.9c-0.3-0.5-0.3-1,0-1.5c0.2-0.3,0.3-0.3,0.4,0
					C5.4,33.5,5.4,33.6,5.4,33.6z"/>
				<path class="st3" d="M6.6,37.5c0,0.1,0,0.2,0,0.3c-0.1,0-0.3,0-0.4-0.1c-0.4-0.2-0.8-0.7-0.8-1.2c0-0.1,0-0.2,0.2-0.1
					C6.1,36.5,6.4,36.8,6.6,37.5z"/>
				<path class="st1" d="M6.1,34.5c0.1,0,0.2,0,0.2,0c0,0.1,0,0.2,0,0.2c-0.1,0.3-0.4,0.5-0.7,0.5c-0.1,0-0.2,0-0.1-0.2
					C5.6,34.8,5.8,34.6,6.1,34.5z"/>
				<path class="st6" d="M6,35.7c0.3-0.1,0.5,0,0.7,0.1c0.1,0,0.1,0.1,0.1,0.2c0,0-0.1,0.1-0.2,0.1C6.3,36.3,6,36.2,5.8,36
					c-0.1-0.1-0.1-0.2,0-0.2C5.8,35.7,5.9,35.7,6,35.7z"/>
			</g>
		</g>
		<g>
			<g>
				<g>
					<g>
						<path class="st1" d="M11.1,43.7c0.1-0.2,0.3-0.4,0.4-0.6c0.1-0.1,0.1-0.3,0.1-0.4c0-0.6-0.4-1-1-0.9c-0.4,0.1-0.7,0.4-0.9,0.7
							c-0.3,0.7-0.2,1.4,0.3,1.9c0.6,0.6,1.2,0.8,2,0.7c0.8-0.1,1.5-0.4,2.1-1c0.8-0.7,1.3-1.6,1.6-2.6c0,0,0-0.1,0.1-0.1
							c0,0.1,0,0.1,0,0.2c0,0.8-0.3,1.6-0.7,2.2c-0.5,0.8-1.2,1.4-2.1,1.8c-1,0.4-2.1,0.4-3.1-0.2C9,45,8.4,44.2,8.4,43.1
							c0-1,0.7-1.9,1.7-2.2c0.7-0.2,1.5,0.1,1.9,0.7c0.6,0.9,0,1.9-0.7,2C11.2,43.7,11.2,43.7,11.1,43.7z"/>
						<path class="st2" d="M13.9,46.7c-0.1,0.3-0.2,0.5-0.4,0.8c-0.3,0.5-0.7,1-1.2,1.3c-0.8,0.5-1.6,0.7-2.5,0.6
							c-0.4,0-0.8-0.1-1.2-0.2c0,0,0,0,0,0c0.3-0.2,0.5-0.6,0.7-0.9c0.2-0.4,0.5-0.8,0.9-1c0.4-0.2,0.8-0.3,1.2-0.4
							c0.5-0.1,0.9-0.2,1.4-0.3c0.2,0,0.4-0.1,0.6-0.2c0,0.2-0.6,0.9-1.1,1.4c-0.4,0.4-0.9,0.7-1.5,1c0.3,0,1.1-0.2,1.7-0.6
							C13,47.6,13.4,47.1,13.9,46.7C13.8,46.7,13.9,46.7,13.9,46.7z"/>
						<path class="st3" d="M14.5,46.4c0.4,0.7,0.6,1.3,0.3,2.1c-0.1,0.3-0.3,0.5-0.5,0.6c-0.3,0.3-0.6,0.5-1,0.8
							c-0.1-0.2-0.1-0.3-0.1-0.5c0-0.5,0.2-1,0.4-1.4c0.2-0.3,0.4-0.6,0.6-1C14.4,46.8,14.4,46.6,14.5,46.4z"/>
						<path class="st4" d="M16.6,48c-0.3-0.3-0.7-0.5-1-0.7c-0.6-0.3-0.8-0.9-0.9-1.5c0-0.4,0.1-0.8,0.3-1.2c0,0,0,0,0,0
							c0,0,0,0,0,0.1c0,0.4,0.2,0.7,0.5,1c0.2,0.2,0.5,0.4,0.7,0.7c0.3,0.4,0.4,0.8,0.4,1.3C16.6,47.7,16.6,47.8,16.6,48z"/>
						<path class="st2" d="M13.8,43.4c0.7-1.1,1.1-2.3,1.1-3.6c0.3,0.3,0.5,1.1,0.3,1.9C15,42.6,14.3,43.3,13.8,43.4z"/>
						<path class="st5" d="M15.6,43.9c0.1-0.1,0.3-0.1,0.4,0c0.1,0.1,0.1,0.3,0,0.4c-0.1,0.1-0.3,0.1-0.4,0
							C15.5,44.2,15.5,44,15.6,43.9z"/>
						<path class="st6" d="M16.5,43.3c0.1,0.1,0.1,0.3,0,0.4c-0.1,0.1-0.3,0.1-0.4,0c-0.1-0.1-0.1-0.3,0-0.4
							C16.2,43.2,16.3,43.2,16.5,43.3z"/>
						<path class="st6" d="M16.4,48.5c0.1,0.1,0.1,0.2,0.1,0.4C16.3,49,16.2,49,16,49c-0.1-0.1-0.1-0.3,0-0.4
							C16.1,48.5,16.2,48.5,16.4,48.5z"/>
						<path class="st2" d="M15.9,48.1c0.1,0.1,0.1,0.2,0,0.3c-0.1,0.1-0.2,0.1-0.3,0c-0.1-0.1-0.1-0.2,0-0.3
							C15.6,48,15.8,48,15.9,48.1z"/>
						<path class="st4" d="M16.4,42.8c0.1-0.1,0.2-0.1,0.3,0c0.1,0.1,0.1,0.2,0,0.3c-0.1,0.1-0.2,0.1-0.3,0
							C16.4,43,16.4,42.9,16.4,42.8z"/>
						<path class="st6" d="M16.6,42.5c-0.1-0.1-0.1-0.2,0-0.3c0.1-0.1,0.2-0.1,0.3,0c0.1,0.1,0.1,0.2,0,0.3
							C16.8,42.6,16.7,42.6,16.6,42.5z"/>
						<path class="st6" d="M15.3,47.6c0.1-0.1,0.2-0.1,0.3,0c0.1,0.1,0.1,0.2,0,0.3c-0.1,0.1-0.2,0.1-0.3,0
							C15.2,47.8,15.2,47.7,15.3,47.6z"/>
					</g>
				</g>
			</g>
			<g>
				<g>
					<path class="st3" d="M9.6,39.1c-0.5-0.2-0.7-0.6-0.5-1.1c0.2-0.4,0.6-0.7,1.1-0.5c0.5,0.1,0.7,0.7,0.5,1.2
						C10.5,39,10,39.3,9.6,39.1z"/>
					<path class="st6" d="M8.2,40.2c-0.4,0.2-0.8,0-1-0.4c-0.2-0.4,0-0.8,0.3-1c0.4-0.2,0.9,0,1.1,0.4C8.7,39.6,8.5,40,8.2,40.2z"/>
					<path class="st2" d="M5.6,41c-0.3-0.1-0.5-0.5-0.4-0.8c0.1-0.3,0.4-0.5,0.7-0.4c0.4,0.1,0.5,0.4,0.4,0.8
						C6.2,40.9,5.9,41.1,5.6,41z"/>
					<path class="st1" d="M3.5,40.8c0.1-0.3,0.4-0.4,0.7-0.3c0.3,0.1,0.4,0.4,0.3,0.7c-0.1,0.3-0.4,0.4-0.7,0.3
						C3.6,41.3,3.4,41,3.5,40.8z"/>
					<path class="st5" d="M1.9,40.9c0.1-0.2,0.3-0.3,0.5-0.2c0.2,0.1,0.3,0.3,0.2,0.5c-0.1,0.2-0.3,0.3-0.5,0.2
						C2,41.4,1.9,41.1,1.9,40.9z"/>
				</g>
			</g>
			<g>
				<path class="st5" d="M19.5,45.6c-0.1,0.2-0.3,0.4-0.4,0.6C19,46.4,18.9,46.7,19,47c0,0.2,0.1,0.3,0.3,0.1
					c0.4-0.3,0.6-0.7,0.6-1.2c0-0.1,0-0.1,0-0.2c0,0,0,0,0,0c0,0.2,0.1,0.3,0.1,0.5c0,0.6-0.1,1.1-0.5,1.6c-0.2,0.3-0.5,0.5-0.9,0.7
					c-0.1,0-0.1,0-0.2-0.1c-0.2-0.5-0.2-1,0-1.5C18.6,46.4,18.9,45.9,19.5,45.6C19.5,45.6,19.5,45.6,19.5,45.6z"/>
				<path class="st3" d="M19.3,45.2c-0.1,0.1-0.1,0.2-0.2,0.2c-0.6,0.3-1.1,0.4-1.7,0c-0.2-0.1-0.2-0.1,0-0.3
					c0.4-0.4,1.1-0.6,1.7-0.3c0.1,0,0.1,0.1,0.2,0.1c-0.1,0-0.3,0-0.4,0c-0.1,0-0.5,0.2-0.6,0.3c-0.1,0.1,0,0.1,0.1,0.1
					c0.3,0.1,0.6,0.1,0.9,0C19.2,45.2,19.2,45.2,19.3,45.2C19.2,45.2,19.3,45.2,19.3,45.2z"/>
				<path class="st1" d="M20.5,45.4c0.3,0.1,0.5,0.2,0.7,0.3c0.3,0.3,0.5,0.6,0.6,1c0.1,0.3,0,0.4-0.3,0.3c-0.6-0.1-1.1-0.8-1.1-1.5
					c0.1,0.1,0.1,0.3,0.2,0.4c0.1,0.2,0.3,0.4,0.5,0.4c0.1,0,0.2,0,0.1-0.1c-0.1-0.3-0.2-0.6-0.5-0.7C20.6,45.5,20.6,45.5,20.5,45.4
					C20.6,45.5,20.6,45.5,20.5,45.4z"/>
				<path class="st6" d="M18.9,43.7c0.4,0.2,0.5,0.5,0.6,0.8c0,0.1,0,0.1-0.1,0.1c-0.4-0.1-0.8-0.3-0.9-0.8c-0.1-0.3,0-0.3,0.2-0.2
					C18.8,43.7,18.8,43.7,18.9,43.7z"/>
				<path class="st4" d="M21.8,44.9c0,0,0.1,0.1,0.2,0.2c-0.1,0.1-0.1,0.1-0.2,0.2c-0.3,0.2-0.8,0.1-1.1-0.1c-0.1-0.1-0.1-0.1,0-0.2
					C20.9,44.8,21.3,44.7,21.8,44.9z"/>
				<path class="st4" d="M19.7,43.7c0,0,0.1-0.1,0.1-0.1c0.1,0,0.1,0.1,0.1,0.1c0.1,0.2,0.1,0.5,0,0.7c-0.1,0.1-0.1,0.1-0.2,0
					C19.6,44.2,19.6,44,19.7,43.7z"/>
				<path class="st6" d="M20.4,44.4c0.1-0.2,0.2-0.3,0.4-0.4c0.1,0,0.1,0,0.2,0c0,0,0,0.1,0,0.2c-0.1,0.3-0.3,0.4-0.5,0.5
					c-0.1,0-0.2,0-0.1-0.1C20.4,44.5,20.4,44.5,20.4,44.4z"/>
			</g>
			<g>
				<path class="st6" d="M18.5,51.9c-0.2,0.3-0.4,0.5-0.5,0.8c-0.2,0.3-0.2,0.7-0.2,1.1c0,0.3,0.2,0.4,0.4,0.2
					c0.5-0.4,0.7-0.9,0.7-1.6c0-0.1,0-0.2,0-0.2c0,0,0,0,0.1,0c0,0.2,0.1,0.4,0.1,0.6c0,0.7-0.2,1.4-0.6,2c-0.3,0.4-0.7,0.7-1.1,0.9
					c-0.1,0.1-0.2,0-0.2-0.1c-0.3-0.6-0.3-1.3-0.1-1.9C17.4,52.9,17.8,52.3,18.5,51.9C18.5,51.9,18.5,51.9,18.5,51.9z"/>
				<path class="st4" d="M18.2,51.4c-0.1,0.1-0.2,0.2-0.3,0.2c-0.7,0.4-1.4,0.5-2.2,0c-0.2-0.1-0.2-0.2,0-0.4
					c0.6-0.6,1.4-0.7,2.2-0.4c0.1,0,0.2,0.1,0.2,0.1c-0.2,0-0.4,0-0.6,0c-0.2,0-0.7,0.2-0.8,0.3c-0.1,0.1,0,0.2,0.1,0.2
					c0.4,0.2,0.8,0.1,1.1-0.1C18.1,51.5,18.2,51.4,18.2,51.4C18.2,51.4,18.2,51.4,18.2,51.4z"/>
				<path class="st5" d="M19.8,51.7c0.3,0.1,0.6,0.2,0.8,0.4c0.4,0.3,0.6,0.8,0.7,1.3c0.1,0.4,0,0.5-0.4,0.4
					c-0.8-0.2-1.5-1.1-1.5-1.9c0.1,0.2,0.2,0.3,0.2,0.5c0.1,0.3,0.4,0.5,0.7,0.6c0.2,0.1,0.2,0,0.2-0.2c-0.1-0.4-0.3-0.7-0.6-0.9
					C20,51.8,19.9,51.8,19.8,51.7C19.9,51.8,19.9,51.7,19.8,51.7z"/>
				<path class="st4" d="M17.7,49.5c0.5,0.2,0.7,0.6,0.8,1.1c0,0.1,0,0.1-0.1,0.1c-0.6-0.1-1-0.4-1.2-1c-0.1-0.3,0-0.4,0.3-0.3
					C17.6,49.5,17.7,49.5,17.7,49.5z"/>
				<path class="st3" d="M21.4,51c0.1,0.1,0.2,0.1,0.2,0.2c-0.1,0.1-0.2,0.2-0.3,0.3c-0.4,0.2-1,0.2-1.4-0.1c-0.1-0.1-0.1-0.1,0-0.2
					C20.4,50.8,20.8,50.8,21.4,51z"/>
				<path class="st1" d="M18.8,49.5c0.1-0.1,0.1-0.2,0.2-0.2c0.1,0,0.1,0.1,0.2,0.2c0.1,0.3,0.1,0.6,0,0.9c-0.1,0.1-0.2,0.1-0.2,0
					C18.7,50.1,18.7,49.8,18.8,49.5z"/>
				<path class="st6" d="M19.7,50.4c0.1-0.2,0.3-0.4,0.5-0.5c0.1,0,0.2,0,0.2,0c0,0,0,0.1,0,0.2c-0.1,0.3-0.3,0.5-0.7,0.6
					c-0.2,0-0.2,0-0.2-0.2C19.6,50.5,19.6,50.5,19.7,50.4z"/>
			</g>
		</g>
		<g>
			<g>
				<g>
					<g>
						<path class="st1" d="M29.1,51.4c-0.1-0.2-0.1-0.5-0.2-0.7c-0.1-0.1-0.2-0.3-0.3-0.4c-0.4-0.4-1-0.3-1.3,0.2
							c-0.2,0.4-0.2,0.8,0,1.2c0.3,0.7,0.9,1,1.7,1c0.8-0.1,1.4-0.5,1.8-1.1c0.4-0.7,0.6-1.4,0.5-2.2c-0.1-1-0.4-2-1-2.8
							c0,0,0-0.1,0-0.1c0,0,0.1,0.1,0.1,0.1c0.6,0.5,1,1.2,1.3,2c0.3,0.9,0.3,1.8,0.1,2.7c-0.3,1.1-1,1.9-2,2.3
							c-1,0.4-2,0.3-2.8-0.4c-0.8-0.6-1-1.7-0.6-2.6c0.3-0.7,1-1.1,1.7-1.1c1.1,0.1,1.5,1.2,1.1,1.9C29.2,51.3,29.2,51.3,29.1,51.4z
							"/>
						<path class="st2" d="M33.2,51.1c0.1,0.3,0.3,0.5,0.4,0.8c0.2,0.6,0.3,1.1,0.2,1.8c-0.1,0.9-0.5,1.7-1.1,2.4
							c-0.3,0.3-0.6,0.6-0.9,0.8c0,0,0,0,0,0c0-0.4-0.1-0.8-0.3-1.1c-0.2-0.4-0.3-0.9-0.3-1.3c0-0.4,0.2-0.8,0.4-1.2
							c0.2-0.4,0.4-0.8,0.6-1.2c0.1-0.2,0.2-0.4,0.2-0.6c0.1,0.1,0.3,1,0.4,1.7c0,0.6,0,1.2-0.2,1.7c0.2-0.2,0.5-1,0.6-1.8
							C33.3,52.3,33.3,51.7,33.2,51.1C33.1,51.1,33.2,51.1,33.2,51.1z"/>
						<path class="st3" d="M33.3,50.4c0.7,0.1,1.4,0.3,1.8,1c0.1,0.2,0.2,0.5,0.2,0.8c0,0.4,0,0.8,0,1.3c-0.2,0-0.3-0.1-0.5-0.3
							c-0.4-0.3-0.7-0.7-0.8-1.2c-0.1-0.4-0.3-0.7-0.4-1.1C33.6,50.8,33.4,50.6,33.3,50.4z"/>
						<path class="st4" d="M35.9,49.7c-0.5,0-0.8,0.3-1.2,0.4c-0.6,0.2-1.2,0.1-1.7-0.3c-0.3-0.2-0.6-0.6-0.8-0.9c0,0,0,0,0,0
							c0,0,0,0,0.1,0c0.3,0.2,0.7,0.3,1.1,0.2c0.3-0.1,0.6-0.1,1-0.1c0.5,0,0.9,0.2,1.2,0.5C35.7,49.5,35.8,49.6,35.9,49.7z"/>
						<path class="st2" d="M30.6,49.1c-0.4-1.3-1.1-2.3-2.2-3.1c0.4-0.1,1.2,0.3,1.7,0.9C30.7,47.6,30.8,48.6,30.6,49.1z"/>
						<path class="st5" d="M32,48c0-0.2,0.1-0.3,0.2-0.3c0.2,0,0.3,0.1,0.4,0.2c0,0.2-0.1,0.3-0.2,0.3C32.2,48.2,32.1,48.1,32,48z"
							/>
						<path class="st6" d="M32.1,46.9c0.1,0,0.3,0.1,0.3,0.2c0,0.1-0.1,0.3-0.2,0.3c-0.1,0-0.3-0.1-0.3-0.2
							C31.9,47.1,32,47,32.1,46.9z"/>
						<path class="st6" d="M36.2,50.3c0.1,0,0.3,0,0.3,0.2c0,0.1,0,0.3-0.2,0.3c-0.1,0-0.3-0.1-0.3-0.2C36,50.5,36,50.3,36.2,50.3z"
							/>
						<path class="st2" d="M35.5,50.4c0.1,0,0.2,0,0.3,0.2c0,0.1,0,0.2-0.2,0.3c-0.1,0-0.3-0.1-0.3-0.2
							C35.3,50.6,35.4,50.4,35.5,50.4z"/>
						<path class="st4" d="M31.7,46.6c0-0.1,0-0.2,0.2-0.3c0.1,0,0.2,0,0.3,0.2c0,0.1-0.1,0.2-0.2,0.3
							C31.8,46.8,31.7,46.7,31.7,46.6z"/>
						<path class="st6" d="M31.6,46.3c-0.1,0-0.2,0-0.2-0.2c0-0.1,0-0.2,0.2-0.2c0.1,0,0.2,0,0.2,0.2C31.8,46.2,31.7,46.3,31.6,46.3
							z"/>
						<path class="st6" d="M34.8,50.6c0-0.1,0-0.2,0.2-0.2c0.1,0,0.2,0,0.2,0.2c0,0.1,0,0.2-0.2,0.2C34.9,50.8,34.8,50.7,34.8,50.6z
							"/>
					</g>
				</g>
			</g>
			<g>
				<g>
					<path class="st3" d="M24.6,49.7c-0.4,0.3-0.9,0.1-1.2-0.3c-0.2-0.4-0.1-0.9,0.3-1.2c0.4-0.3,0.9-0.1,1.2,0.3
						C25.1,48.9,25,49.4,24.6,49.7z"/>
					<path class="st6" d="M24.6,51.5c-0.1,0.4-0.5,0.7-0.9,0.6c-0.4-0.1-0.7-0.5-0.6-0.9c0.1-0.4,0.5-0.7,1-0.6
						C24.4,50.7,24.7,51.1,24.6,51.5z"/>
					<path class="st2" d="M23.5,54c-0.3,0.2-0.7,0.1-0.9-0.2c-0.2-0.3-0.1-0.6,0.2-0.8c0.3-0.2,0.7-0.2,0.9,0.1
						C23.9,53.5,23.9,53.8,23.5,54z"/>
					<path class="st1" d="M22.1,55.5c-0.2-0.2-0.1-0.6,0.2-0.7c0.3-0.2,0.6-0.1,0.7,0.2c0.2,0.3,0.1,0.6-0.2,0.7
						C22.6,55.8,22.2,55.7,22.1,55.5z"/>
					<path class="st5" d="M21.2,56.8c-0.1-0.2-0.1-0.5,0.1-0.6c0.2-0.1,0.4-0.1,0.6,0.1c0.1,0.2,0.1,0.4-0.1,0.6
						C21.6,57.1,21.4,57,21.2,56.8z"/>
				</g>
			</g>
			<g>
				<path class="st5" d="M35.8,46c0.1,0.2,0.1,0.5,0.2,0.7c0.1,0.3,0.3,0.5,0.6,0.6c0.2,0.1,0.3,0.1,0.3-0.2c0-0.5-0.2-0.9-0.6-1.2
					c0,0-0.1-0.1-0.1-0.1c0,0,0,0,0,0c0.1,0.1,0.3,0.1,0.4,0.3c0.4,0.4,0.8,0.8,0.9,1.3c0.1,0.4,0.1,0.7,0,1.1
					c0,0.1-0.1,0.1-0.2,0.1c-0.5-0.2-0.9-0.5-1.2-0.9C35.9,47.1,35.7,46.6,35.8,46C35.8,46,35.8,46,35.8,46z"/>
				<path class="st3" d="M35.4,45.9c0,0.1,0,0.2,0,0.3c-0.1,0.6-0.4,1.1-1,1.3c-0.2,0.1-0.2,0-0.2-0.1c-0.1-0.6,0.2-1.2,0.8-1.5
					c0.1,0,0.1-0.1,0.2-0.1c-0.1,0.1-0.2,0.2-0.3,0.3c-0.1,0.1-0.2,0.5-0.2,0.6c0,0.1,0.1,0.1,0.2,0c0.3-0.2,0.4-0.4,0.5-0.7
					C35.4,46,35.4,46,35.4,45.9C35.4,45.9,35.4,45.9,35.4,45.9z"/>
				<path class="st1" d="M36.3,45.1c0.2-0.2,0.4-0.2,0.7-0.3c0.4-0.1,0.8,0,1.1,0.2c0.3,0.2,0.3,0.2,0,0.4c-0.5,0.4-1.4,0.4-1.9,0
					c0.2,0,0.3,0.1,0.4,0.1c0.2,0,0.5,0,0.7-0.1c0.1-0.1,0.1-0.1,0-0.2c-0.3-0.2-0.6-0.2-0.9-0.1C36.5,45.1,36.4,45.1,36.3,45.1
					C36.4,45.1,36.4,45.1,36.3,45.1z"/>
				<path class="st6" d="M34,45.3c0.4-0.2,0.7-0.1,1,0.1c0.1,0,0.1,0.1,0,0.1c-0.3,0.3-0.7,0.4-1.2,0.2c-0.2-0.1-0.3-0.2,0-0.3
					C33.9,45.4,33.9,45.3,34,45.3z"/>
				<path class="st4" d="M36.7,43.8c0.1,0,0.2,0,0.3,0c0,0.1,0,0.2,0,0.3c-0.1,0.4-0.4,0.7-0.8,0.8c-0.1,0-0.1,0-0.1-0.1
					C36.1,44.3,36.3,44,36.7,43.8z"/>
				<path class="st4" d="M34.5,44.7c0-0.1,0-0.2,0-0.2c0,0,0.1,0,0.2,0c0.3,0.1,0.4,0.2,0.5,0.4c0,0.1,0,0.2-0.1,0.1
					C34.8,45,34.6,44.9,34.5,44.7z"/>
				<path class="st6" d="M35.5,44.5c-0.1-0.2-0.1-0.4,0-0.6c0,0,0.1-0.1,0.1-0.1c0,0,0.1,0.1,0.1,0.1c0.1,0.2,0.2,0.5,0,0.7
					c-0.1,0.1-0.1,0.1-0.2,0C35.5,44.6,35.5,44.6,35.5,44.5z"/>
			</g>
			<g>
				<path class="st6" d="M40.1,50.7c0.1,0.3,0.2,0.6,0.3,0.9c0.1,0.3,0.4,0.6,0.7,0.8c0.3,0.2,0.4,0.1,0.4-0.2
					c0-0.6-0.3-1.1-0.8-1.6c-0.1-0.1-0.1-0.1-0.2-0.2c0,0,0,0,0,0c0.2,0.1,0.4,0.2,0.6,0.3c0.6,0.5,1,1,1.2,1.7c0.1,0.5,0.1,1,0,1.4
					c0,0.1-0.1,0.1-0.2,0.1c-0.7-0.2-1.2-0.6-1.5-1.2C40.2,52.2,40,51.5,40.1,50.7C40.1,50.7,40.1,50.7,40.1,50.7z"/>
				<path class="st4" d="M39.6,50.6c0,0.1,0,0.3,0,0.4c-0.2,0.8-0.5,1.4-1.3,1.7c-0.2,0.1-0.3,0.1-0.3-0.2c-0.1-0.8,0.3-1.6,1-2
					c0.1,0,0.2-0.1,0.3-0.1c-0.1,0.1-0.2,0.3-0.4,0.4c-0.1,0.1-0.3,0.7-0.2,0.8c0.1,0.1,0.1,0.1,0.2,0c0.4-0.2,0.6-0.5,0.7-0.9
					C39.5,50.7,39.6,50.7,39.6,50.6C39.6,50.6,39.6,50.6,39.6,50.6z"/>
				<path class="st5" d="M40.8,49.5c0.3-0.2,0.6-0.3,0.9-0.4c0.5-0.1,1,0,1.4,0.2c0.4,0.2,0.4,0.3,0.1,0.6c-0.6,0.5-1.7,0.5-2.4-0.1
					c0.2,0,0.4,0.1,0.5,0.1c0.3,0.1,0.6,0,0.9-0.2c0.2-0.1,0.2-0.2,0-0.2c-0.4-0.2-0.7-0.2-1.1-0.1C41,49.5,40.9,49.5,40.8,49.5
					C40.9,49.5,40.9,49.5,40.8,49.5z"/>
				<path class="st4" d="M37.8,49.8c0.5-0.2,0.9-0.2,1.3,0.1c0.1,0,0.1,0.1,0,0.2c-0.4,0.4-0.9,0.5-1.5,0.3
					c-0.3-0.1-0.3-0.2-0.1-0.4C37.7,49.9,37.7,49.9,37.8,49.8z"/>
				<path class="st3" d="M41.3,47.8c0.1,0,0.2,0,0.3,0c0,0.1,0,0.3,0,0.4c-0.1,0.5-0.5,0.9-1,1c-0.1,0-0.2,0-0.2-0.1
					C40.5,48.6,40.7,48.2,41.3,47.8z"/>
				<path class="st1" d="M38.5,49c0-0.1,0-0.2,0-0.2c0,0,0.2,0,0.2,0c0.3,0.1,0.5,0.3,0.7,0.6c0,0.1,0,0.2-0.2,0.2
					C38.9,49.4,38.6,49.3,38.5,49z"/>
				<path class="st6" d="M39.7,48.8c-0.1-0.2-0.1-0.5,0-0.7c0-0.1,0.1-0.1,0.1-0.2c0,0,0.1,0.1,0.2,0.1c0.2,0.3,0.2,0.6,0.1,0.9
					c-0.1,0.2-0.1,0.2-0.2,0C39.8,49,39.7,48.9,39.7,48.8z"/>
			</g>
		</g>
		<g>
			<g>
				<g>
					<g>
						<path class="st1" d="M46.4,42.1c-0.2-0.1-0.4-0.2-0.7-0.3c-0.1,0-0.3,0-0.5,0c-0.6,0.1-0.9,0.6-0.6,1.2
							c0.2,0.4,0.5,0.6,0.9,0.7c0.7,0.2,1.4-0.1,1.8-0.7c0.4-0.7,0.5-1.4,0.2-2.1c-0.3-0.8-0.7-1.4-1.4-1.8c-0.9-0.6-1.8-0.9-2.8-1
							c0,0-0.1,0-0.1,0c0,0,0.1,0,0.1,0c0.8-0.2,1.6-0.1,2.4,0.2c0.9,0.3,1.6,0.9,2.2,1.7c0.6,0.9,0.8,1.9,0.5,3c-0.3,1-1,1.7-2.1,2
							c-1,0.2-2-0.3-2.5-1.1c-0.4-0.7-0.3-1.5,0.2-2c0.7-0.8,1.8-0.4,2.2,0.3C46.3,42,46.4,42,46.4,42.1z"/>
						<path class="st2" d="M48.6,38.7c0.3,0.1,0.6,0.1,0.8,0.2c0.6,0.2,1.1,0.5,1.5,0.9c0.7,0.6,1,1.4,1.2,2.3
							c0.1,0.4,0.1,0.8,0.1,1.2c0,0,0,0,0,0c-0.3-0.3-0.7-0.4-1.1-0.5c-0.5-0.1-0.9-0.3-1.2-0.6c-0.3-0.3-0.5-0.7-0.7-1
							c-0.2-0.4-0.4-0.8-0.6-1.3c-0.1-0.2-0.2-0.4-0.4-0.6c0.2,0,1,0.4,1.6,0.7c0.5,0.3,0.9,0.8,1.3,1.2c0-0.3-0.5-1-1-1.6
							C49.7,39.4,49.2,39,48.6,38.7C48.6,38.7,48.6,38.7,48.6,38.7z"/>
						<path class="st3" d="M48.2,38.2c0.5-0.5,1.1-0.9,1.9-0.8c0.3,0,0.5,0.2,0.7,0.3c0.3,0.2,0.7,0.5,1,0.8
							c-0.1,0.1-0.3,0.2-0.5,0.2c-0.5,0.1-1,0.1-1.5-0.1c-0.4-0.1-0.7-0.2-1.1-0.3C48.7,38.2,48.4,38.2,48.2,38.2z"/>
						<path class="st4" d="M49.3,35.7c-0.3,0.4-0.3,0.8-0.4,1.2c-0.2,0.6-0.6,1-1.3,1.2c-0.4,0.1-0.8,0.1-1.2,0c0,0,0,0,0,0
							c0,0,0,0,0,0c0.4-0.1,0.7-0.4,0.9-0.7c0.2-0.3,0.3-0.6,0.5-0.8c0.3-0.4,0.7-0.6,1.2-0.7C49,35.8,49.1,35.8,49.3,35.7z"/>
						<path class="st2" d="M45.5,39.5c-1.2-0.5-2.5-0.6-3.8-0.2c0.2-0.4,1-0.8,1.8-0.8C44.4,38.5,45.2,39,45.5,39.5z"/>
						<path class="st5" d="M45.5,37.7c-0.1-0.1-0.2-0.2-0.1-0.4c0.1-0.1,0.2-0.2,0.4-0.1c0.2,0.1,0.2,0.2,0.1,0.4
							C45.8,37.7,45.7,37.7,45.5,37.7z"/>
						<path class="st6" d="M44.8,36.9c0.1-0.1,0.2-0.2,0.4-0.1c0.1,0.1,0.2,0.2,0.1,0.4c-0.1,0.1-0.2,0.2-0.4,0.1
							C44.8,37.2,44.7,37.1,44.8,36.9z"/>
						<path class="st6" d="M49.9,35.9c0.1-0.1,0.2-0.2,0.3-0.1c0.1,0.1,0.2,0.2,0.1,0.3c-0.1,0.1-0.2,0.2-0.4,0.1
							C49.9,36.2,49.8,36,49.9,35.9z"/>
						<path class="st2" d="M49.6,36.5c0.1-0.1,0.2-0.2,0.3-0.1c0.1,0.1,0.2,0.2,0.1,0.3c-0.1,0.1-0.2,0.2-0.3,0.1
							C49.6,36.7,49.5,36.6,49.6,36.5z"/>
						<path class="st4" d="M44.3,37.1c-0.1-0.1-0.2-0.2-0.1-0.3c0.1-0.1,0.2-0.2,0.3-0.1c0.1,0.1,0.2,0.2,0.1,0.3
							C44.5,37.1,44.4,37.1,44.3,37.1z"/>
						<path class="st6" d="M44,37c-0.1,0.1-0.2,0.1-0.3,0.1c-0.1-0.1-0.1-0.2-0.1-0.3c0.1-0.1,0.2-0.1,0.3-0.1
							C44,36.8,44,36.9,44,37z"/>
						<path class="st6" d="M49.3,37.2c-0.1-0.1-0.1-0.2-0.1-0.3c0-0.1,0.2-0.1,0.3-0.1c0.1,0,0.1,0.2,0.1,0.3
							C49.5,37.2,49.4,37.2,49.3,37.2z"/>
					</g>
				</g>
			</g>
			<g>
				<g>
					<path class="st3" d="M42.2,44.6c-0.1,0.5-0.5,0.8-1,0.8c-0.4-0.1-0.8-0.5-0.7-0.9c0-0.5,0.5-0.8,1-0.8
						C41.9,43.7,42.3,44.1,42.2,44.6z"/>
					<path class="st6" d="M43.6,45.7c0.3,0.3,0.2,0.8-0.1,1.1c-0.3,0.2-0.8,0.2-1.1-0.1c-0.3-0.3-0.2-0.8,0.1-1.1
						C42.9,45.3,43.4,45.4,43.6,45.7z"/>
					<path class="st2" d="M44.9,48.1c0,0.3-0.4,0.6-0.7,0.5c-0.3,0-0.5-0.3-0.5-0.6c0-0.4,0.3-0.6,0.6-0.6
						C44.7,47.4,45,47.7,44.9,48.1z"/>
					<path class="st1" d="M45.2,50.1c-0.3,0-0.5-0.3-0.4-0.6c0-0.3,0.3-0.5,0.6-0.4c0.3,0,0.5,0.3,0.4,0.6
						C45.7,50,45.5,50.2,45.2,50.1z"/>
					<path class="st5" d="M45.7,51.6c-0.2,0-0.4-0.2-0.4-0.5c0-0.2,0.2-0.4,0.5-0.4c0.3,0,0.4,0.2,0.4,0.5
						C46.1,51.5,45.9,51.6,45.7,51.6z"/>
				</g>
			</g>
			<g>
				<path class="st5" d="M46.3,33.5c0.2,0.1,0.4,0.2,0.7,0.2c0.3,0.1,0.6,0,0.8-0.1c0.2-0.1,0.3-0.2,0.1-0.3
					C47.5,33,47,32.9,46.6,33c-0.1,0-0.1,0-0.2,0c0,0,0,0,0,0c0.2-0.1,0.3-0.2,0.5-0.2c0.6-0.1,1.1-0.1,1.6,0.1
					c0.4,0.2,0.6,0.4,0.9,0.7c0.1,0.1,0,0.1,0,0.2c-0.4,0.3-0.9,0.4-1.5,0.4C47.3,34.1,46.7,33.9,46.3,33.5
					C46.3,33.5,46.3,33.5,46.3,33.5z"/>
				<path class="st3" d="M46,33.8c0.1,0.1,0.2,0.1,0.2,0.2c0.4,0.5,0.6,1,0.4,1.7c-0.1,0.2-0.1,0.2-0.3,0.1c-0.5-0.3-0.8-1-0.7-1.6
					c0-0.1,0-0.1,0.1-0.2c0,0.1,0.1,0.3,0.1,0.4c0,0.1,0.3,0.5,0.4,0.5c0.1,0,0.1-0.1,0.1-0.1c0.1-0.3,0-0.6-0.2-0.9
					C46.1,33.9,46,33.8,46,33.8C46,33.8,46,33.8,46,33.8z"/>
				<path class="st1" d="M45.9,32.5c0-0.3,0.1-0.5,0.2-0.7c0.2-0.4,0.5-0.6,0.8-0.8c0.3-0.1,0.4-0.1,0.4,0.2c0,0.6-0.6,1.3-1.2,1.4
					c0.1-0.1,0.2-0.2,0.3-0.3c0.2-0.2,0.3-0.4,0.3-0.6c0-0.1,0-0.2-0.1-0.1c-0.3,0.1-0.5,0.4-0.6,0.7C46,32.4,46,32.4,45.9,32.5
					C46,32.5,46,32.5,45.9,32.5z"/>
				<path class="st6" d="M44.6,34.5c0.1-0.4,0.3-0.6,0.7-0.8c0.1,0,0.1,0,0.1,0.1c0,0.5-0.1,0.8-0.5,1.1c-0.2,0.1-0.3,0.1-0.3-0.2
					C44.6,34.6,44.6,34.5,44.6,34.5z"/>
				<path class="st4" d="M45.1,31.4c0,0,0.1-0.1,0.1-0.2c0.1,0.1,0.2,0.1,0.2,0.2c0.3,0.3,0.3,0.8,0.1,1.1c0,0.1-0.1,0.1-0.2,0.1
					C45.2,32.2,45,31.9,45.1,31.4z"/>
				<path class="st4" d="M44.5,33.7c-0.1,0-0.1-0.1-0.2-0.1c0-0.1,0.1-0.1,0.1-0.2c0.2-0.2,0.4-0.2,0.7-0.1c0.1,0,0.1,0.1,0,0.2
					C44.9,33.6,44.7,33.7,44.5,33.7z"/>
				<path class="st6" d="M45,32.9c-0.2,0-0.3-0.2-0.4-0.3c0,0,0-0.1,0-0.2c0,0,0.1,0,0.2,0c0.3,0,0.5,0.2,0.6,0.4
					c0.1,0.1,0,0.2-0.1,0.2C45.1,32.9,45,32.9,45,32.9z"/>
			</g>
			<g>
				<path class="st6" d="M52.7,33c0.3,0.1,0.6,0.2,0.9,0.3c0.4,0.1,0.7,0.1,1.1-0.1c0.3-0.1,0.3-0.2,0.1-0.4
					c-0.5-0.4-1.1-0.5-1.7-0.4c-0.1,0-0.2,0-0.2,0c0,0,0,0,0-0.1c0.2-0.1,0.4-0.2,0.6-0.2c0.7-0.2,1.4-0.1,2.1,0.1
					c0.5,0.2,0.8,0.5,1.1,0.9c0.1,0.1,0,0.2-0.1,0.2C56,33.9,55.3,34,54.7,34C53.9,33.9,53.2,33.6,52.7,33
					C52.7,33.1,52.7,33,52.7,33z"/>
				<path class="st4" d="M52.3,33.4c0.1,0.1,0.2,0.1,0.3,0.2c0.5,0.6,0.8,1.3,0.5,2.1C53,36,53,36,52.8,35.9c-0.7-0.4-1-1.2-0.9-2
					c0-0.1,0-0.2,0.1-0.3c0,0.2,0.1,0.4,0.1,0.5c0,0.2,0.3,0.6,0.5,0.7c0.1,0,0.1-0.1,0.2-0.1c0.1-0.4-0.1-0.8-0.3-1.1
					C52.4,33.5,52.3,33.5,52.3,33.4C52.3,33.4,52.3,33.4,52.3,33.4z"/>
				<path class="st5" d="M52.2,31.8c0-0.3,0.1-0.6,0.2-0.9c0.2-0.5,0.6-0.8,1.1-1c0.4-0.2,0.5-0.1,0.5,0.3c0,0.8-0.7,1.7-1.5,1.8
					c0.2-0.1,0.3-0.2,0.4-0.3c0.2-0.2,0.4-0.5,0.4-0.8c0-0.2,0-0.2-0.2-0.1c-0.4,0.2-0.6,0.5-0.8,0.8C52.3,31.6,52.3,31.7,52.2,31.8
					C52.3,31.7,52.3,31.7,52.2,31.8z"/>
				<path class="st4" d="M50.5,34.3c0.1-0.5,0.4-0.8,0.9-1c0.1,0,0.1,0,0.2,0.1c0,0.6-0.2,1.1-0.7,1.4c-0.3,0.2-0.4,0.1-0.4-0.2
					C50.5,34.5,50.5,34.4,50.5,34.3z"/>
				<path class="st3" d="M51.2,30.4c0-0.1,0.1-0.2,0.2-0.3c0.1,0.1,0.2,0.1,0.3,0.2c0.3,0.4,0.4,1,0.2,1.4c0,0.1-0.1,0.2-0.2,0.1
					C51.3,31.4,51.1,31,51.2,30.4z"/>
				<path class="st1" d="M50.3,33.3c-0.1,0-0.2-0.1-0.2-0.1c0-0.1,0.1-0.2,0.1-0.2c0.3-0.2,0.5-0.3,0.9-0.2c0.1,0,0.2,0.1,0.1,0.2
					C50.9,33.2,50.7,33.3,50.3,33.3z"/>
				<path class="st6" d="M51,32.2c-0.3-0.1-0.4-0.2-0.6-0.4c0-0.1-0.1-0.2,0-0.2c0,0,0.1-0.1,0.2-0.1c0.3,0,0.6,0.2,0.7,0.5
					c0.1,0.2,0.1,0.2-0.1,0.2C51.1,32.3,51,32.2,51,32.2z"/>
			</g>
		</g>
		<g>
			<g>
				<g>
					<g>
						<path class="st1" d="M49.9,22.8c-0.2,0.1-0.4,0.2-0.6,0.4c-0.1,0.1-0.2,0.2-0.3,0.3c-0.3,0.5,0,1.1,0.5,1.2
							c0.4,0.1,0.8,0,1.1-0.3c0.6-0.4,0.8-1.1,0.6-1.9c-0.2-0.8-0.8-1.2-1.5-1.5c-0.8-0.3-1.5-0.3-2.3,0c-1,0.3-1.8,0.9-2.5,1.6
							c0,0,0,0-0.1,0c0,0,0-0.1,0.1-0.1c0.4-0.7,0.9-1.3,1.6-1.7c0.8-0.5,1.7-0.7,2.7-0.7c1.1,0.1,2,0.5,2.7,1.5
							c0.6,0.9,0.7,1.8,0.3,2.8c-0.4,0.9-1.5,1.4-2.4,1.2c-0.7-0.1-1.3-0.7-1.5-1.5c-0.2-1.1,0.8-1.7,1.6-1.5
							C49.7,22.7,49.8,22.8,49.9,22.8z"/>
						<path class="st2" d="M48.6,18.9c0.2-0.2,0.4-0.4,0.7-0.5c0.5-0.3,1.1-0.6,1.7-0.6c0.9-0.1,1.7,0.1,2.5,0.5
							c0.4,0.2,0.7,0.4,1,0.7c0,0,0,0,0,0c-0.4,0.1-0.7,0.3-1.1,0.5c-0.4,0.3-0.8,0.5-1.2,0.6c-0.4,0.1-0.8,0-1.2-0.1
							c-0.4-0.1-0.9-0.2-1.3-0.3c-0.2,0-0.4-0.1-0.7-0.1c0.1-0.2,0.9-0.6,1.6-0.8c0.6-0.2,1.1-0.2,1.7-0.2c-0.2-0.1-1.1-0.3-1.8-0.2
							C49.8,18.5,49.2,18.7,48.6,18.9C48.6,18.9,48.6,18.9,48.6,18.9z"/>
						<path class="st3" d="M47.9,18.9c-0.1-0.8,0-1.5,0.6-2c0.2-0.2,0.5-0.3,0.7-0.4c0.4-0.1,0.8-0.2,1.2-0.3c0,0.2-0.1,0.4-0.1,0.5
							c-0.2,0.5-0.6,0.8-1,1.1c-0.3,0.2-0.6,0.4-0.9,0.6C48.2,18.6,48.1,18.8,47.9,18.9z"/>
						<path class="st4" d="M46.7,16.6c0.1,0.4,0.4,0.7,0.6,1c0.4,0.6,0.4,1.1,0.1,1.7c-0.2,0.4-0.4,0.7-0.7,0.9c0,0,0,0,0,0
							c0,0,0,0,0-0.1c0.2-0.4,0.1-0.8,0-1.1c-0.1-0.3-0.3-0.6-0.3-0.9c-0.1-0.5,0-0.9,0.2-1.3C46.6,16.8,46.6,16.7,46.7,16.6z"/>
						<path class="st2" d="M47.3,21.9c-1.1,0.7-2,1.6-2.5,2.8c-0.1-0.4,0-1.2,0.5-1.8C45.8,22.1,46.7,21.8,47.3,21.9z"/>
						<path class="st5" d="M45.9,20.7c-0.1,0.1-0.3,0-0.4-0.1c-0.1-0.2,0-0.3,0.1-0.4c0.2-0.1,0.3,0,0.4,0.1
							C46.1,20.5,46,20.6,45.9,20.7z"/>
						<path class="st6" d="M44.8,20.8c-0.1-0.1,0-0.3,0.1-0.4c0.1-0.1,0.3,0,0.3,0.1c0.1,0.1,0,0.3-0.1,0.4C45,21,44.9,21,44.8,20.8
							z"/>
						<path class="st6" d="M47.2,16.2c-0.1-0.1,0-0.3,0.1-0.3c0.1-0.1,0.3,0,0.4,0.1c0.1,0.1,0,0.3-0.1,0.4
							C47.4,16.3,47.3,16.3,47.2,16.2z"/>
						<path class="st2" d="M47.5,16.8c-0.1-0.1,0-0.2,0.1-0.3c0.1-0.1,0.3,0,0.3,0.1c0.1,0.1,0,0.3-0.1,0.3
							C47.7,16.9,47.5,16.9,47.5,16.8z"/>
						<path class="st4" d="M44.6,21.3c-0.1,0.1-0.2,0-0.3-0.1c-0.1-0.1,0-0.2,0.1-0.3c0.1-0.1,0.2,0,0.3,0.1
							C44.8,21.2,44.7,21.3,44.6,21.3z"/>
						<path class="st6" d="M44.4,21.5c0,0.1,0,0.2-0.1,0.3c-0.1,0.1-0.2,0-0.3-0.1c0-0.1,0-0.2,0.1-0.3
							C44.2,21.4,44.3,21.4,44.4,21.5z"/>
						<path class="st6" d="M47.8,17.5c-0.1,0-0.2,0-0.3-0.1c0-0.1,0-0.2,0.1-0.3c0.1,0,0.2,0,0.3,0.1C47.9,17.3,47.9,17.4,47.8,17.5
							z"/>
					</g>
				</g>
			</g>
			<g>
				<g>
					<path class="st3" d="M49.2,27.6c0.4,0.4,0.3,0.9,0,1.2c-0.3,0.3-0.9,0.3-1.2,0c-0.3-0.3-0.3-0.9,0-1.3
						C48.3,27.2,48.9,27.3,49.2,27.6z"/>
					<path class="st6" d="M51,27.2c0.4,0,0.8,0.3,0.8,0.8c0,0.4-0.3,0.7-0.8,0.8c-0.4,0-0.8-0.4-0.8-0.8
						C50.2,27.5,50.5,27.2,51,27.2z"/>
					<path class="st2" d="M53.6,27.7c0.2,0.2,0.2,0.6,0,0.9c-0.2,0.2-0.6,0.2-0.8,0c-0.3-0.3-0.3-0.6-0.1-0.9
						C53,27.4,53.4,27.4,53.6,27.7z"/>
					<path class="st1" d="M55.4,28.7c-0.2,0.2-0.5,0.2-0.7,0c-0.2-0.2-0.2-0.5,0-0.7c0.2-0.2,0.5-0.2,0.7,0
						C55.6,28.2,55.6,28.5,55.4,28.7z"/>
					<path class="st5" d="M56.9,29.3c-0.2,0.2-0.4,0.2-0.6,0c-0.2-0.2-0.2-0.4,0-0.6c0.2-0.2,0.4-0.2,0.6,0
						C57,28.8,57,29.1,56.9,29.3z"/>
				</g>
			</g>
			<g>
				<path class="st5" d="M43.1,17.5c0.2-0.1,0.4-0.2,0.6-0.4c0.2-0.2,0.4-0.4,0.5-0.7c0.1-0.2,0-0.3-0.2-0.3
					c-0.5,0.1-0.8,0.4-1.1,0.8c0,0.1-0.1,0.1-0.1,0.2c0,0,0,0,0,0c0-0.2,0.1-0.3,0.1-0.5c0.3-0.5,0.6-0.9,1.1-1.2
					c0.3-0.2,0.7-0.3,1.1-0.3c0.1,0,0.1,0.1,0.1,0.1c0,0.5-0.2,1-0.6,1.4C44.2,17.1,43.7,17.4,43.1,17.5
					C43.1,17.5,43.1,17.5,43.1,17.5z"/>
				<path class="st3" d="M43.1,17.9c0.1,0,0.2-0.1,0.3-0.1c0.6,0,1.2,0.1,1.5,0.7c0.1,0.2,0.1,0.2-0.1,0.3c-0.6,0.2-1.3,0-1.7-0.4
					c0-0.1-0.1-0.1-0.1-0.2c0.1,0.1,0.3,0.1,0.4,0.2c0.1,0.1,0.5,0.1,0.7,0c0.1-0.1,0-0.1,0-0.2c-0.2-0.2-0.5-0.3-0.8-0.3
					C43.2,17.9,43.2,17.9,43.1,17.9C43.1,17.9,43.1,17.9,43.1,17.9z"/>
				<path class="st1" d="M42.1,17.2c-0.2-0.2-0.3-0.4-0.4-0.6c-0.2-0.4-0.2-0.8-0.1-1.1c0.1-0.3,0.2-0.3,0.4-0.1
					c0.5,0.4,0.7,1.2,0.4,1.8c0-0.2,0-0.3,0-0.4c0-0.2-0.1-0.4-0.3-0.6c-0.1-0.1-0.1-0.1-0.2,0c-0.1,0.3,0,0.6,0.1,0.9
					C42,17,42.1,17.1,42.1,17.2C42.1,17.1,42.1,17.1,42.1,17.2z"/>
				<path class="st6" d="M42.8,19.4c-0.2-0.3-0.3-0.7-0.2-1c0-0.1,0.1-0.1,0.1,0c0.4,0.3,0.6,0.6,0.5,1.1c0,0.3-0.1,0.3-0.3,0.1
					C42.9,19.5,42.9,19.4,42.8,19.4z"/>
				<path class="st4" d="M40.7,17.1c0-0.1-0.1-0.2-0.1-0.3c0.1,0,0.2-0.1,0.3-0.1c0.4,0,0.8,0.2,0.9,0.6c0,0.1,0,0.1-0.1,0.2
					C41.4,17.6,41.1,17.5,40.7,17.1z"/>
				<path class="st4" d="M42.1,19c-0.1,0-0.1,0.1-0.2,0c0,0-0.1-0.1-0.1-0.2c0-0.3,0.1-0.5,0.3-0.6c0.1-0.1,0.2,0,0.2,0.1
					C42.3,18.6,42.3,18.9,42.1,19z"/>
				<path class="st6" d="M41.8,18.1c-0.2,0.1-0.3,0.2-0.5,0.1c-0.1,0-0.1,0-0.1-0.1c0,0,0-0.1,0.1-0.1c0.2-0.2,0.4-0.3,0.7-0.2
					c0.1,0,0.2,0.1,0.1,0.2C41.8,18.1,41.8,18.1,41.8,18.1z"/>
			</g>
			<g>
				<path class="st6" d="M46.7,12.2c0.3-0.2,0.5-0.3,0.8-0.5c0.3-0.2,0.5-0.5,0.6-0.9c0.1-0.3,0-0.4-0.3-0.3
					c-0.6,0.2-1.1,0.5-1.4,1.1c0,0.1-0.1,0.1-0.1,0.2c0,0,0,0-0.1,0c0.1-0.2,0.1-0.4,0.2-0.6c0.3-0.6,0.8-1.2,1.4-1.5
					c0.4-0.2,0.9-0.3,1.4-0.3c0.1,0,0.2,0.1,0.1,0.2c0,0.7-0.3,1.3-0.8,1.8C48.1,11.8,47.5,12.1,46.7,12.2
					C46.7,12.2,46.7,12.2,46.7,12.2z"/>
				<path class="st4" d="M46.8,12.7c0.1,0,0.2-0.1,0.4-0.1c0.8,0,1.5,0.2,2,0.9c0.1,0.2,0.1,0.3-0.1,0.3c-0.7,0.3-1.6,0-2.1-0.5
					c-0.1-0.1-0.1-0.1-0.2-0.2c0.2,0.1,0.3,0.2,0.5,0.3c0.1,0.1,0.7,0.1,0.8,0c0.1-0.1,0-0.2,0-0.2c-0.3-0.3-0.6-0.4-1-0.4
					C46.9,12.8,46.8,12.8,46.8,12.7C46.8,12.8,46.8,12.8,46.8,12.7z"/>
				<path class="st5" d="M45.4,11.8c-0.3-0.2-0.4-0.5-0.6-0.8c-0.2-0.5-0.2-1-0.1-1.5c0.1-0.4,0.2-0.4,0.5-0.2
					c0.6,0.5,0.9,1.6,0.5,2.4c0-0.2,0-0.4,0-0.5c0-0.3-0.1-0.6-0.4-0.8c-0.1-0.1-0.2-0.1-0.2,0.1c-0.1,0.4,0,0.8,0.2,1.1
					C45.4,11.7,45.4,11.7,45.4,11.8C45.4,11.7,45.4,11.7,45.4,11.8z"/>
				<path class="st4" d="M46.4,14.7c-0.3-0.4-0.4-0.8-0.2-1.3c0-0.1,0.1-0.1,0.2-0.1c0.5,0.3,0.7,0.8,0.6,1.4c0,0.3-0.1,0.4-0.4,0.2
					C46.5,14.8,46.4,14.7,46.4,14.7z"/>
				<path class="st3" d="M43.7,11.7c0-0.1-0.1-0.2-0.1-0.3c0.1,0,0.2-0.1,0.4-0.1c0.5,0,1,0.3,1.2,0.7c0,0.1,0.1,0.2-0.1,0.2
					C44.6,12.3,44.1,12.2,43.7,11.7z"/>
				<path class="st1" d="M45.4,14.2c-0.1,0-0.2,0.1-0.2,0.1c-0.1,0-0.1-0.2-0.1-0.2c0-0.3,0.1-0.6,0.4-0.8c0.1-0.1,0.2,0,0.2,0.1
					C45.8,13.7,45.7,14,45.4,14.2z"/>
				<path class="st6" d="M45,13.1c-0.2,0.2-0.4,0.2-0.7,0.2c-0.1,0-0.2-0.1-0.2-0.1c0,0,0-0.1,0.1-0.2c0.2-0.2,0.5-0.3,0.9-0.3
					c0.2,0,0.2,0.1,0.1,0.2C45.1,13,45.1,13,45,13.1z"/>
			</g>
		</g>
		<g>
			<g>
				<g>
					<g>
						<path class="st1" d="M36.9,8c0,0.2-0.1,0.5-0.1,0.7c0,0.1,0,0.3,0.1,0.5c0.2,0.5,0.8,0.7,1.3,0.4c0.3-0.3,0.5-0.6,0.5-1
							c0-0.7-0.4-1.3-1.1-1.6c-0.8-0.3-1.5-0.2-2.1,0.2c-0.7,0.4-1.2,1-1.5,1.8c-0.4,1-0.5,2-0.3,3c0,0,0,0.1,0,0.1
							c0,0-0.1-0.1-0.1-0.1c-0.3-0.8-0.4-1.5-0.3-2.3c0.1-0.9,0.5-1.8,1.1-2.5c0.8-0.8,1.7-1.3,2.8-1.2c1.1,0.1,1.9,0.6,2.4,1.6
							c0.4,0.9,0.2,2-0.6,2.7c-0.6,0.5-1.4,0.6-2,0.2c-0.9-0.5-0.8-1.7-0.2-2.2C36.8,8.1,36.9,8.1,36.9,8z"/>
						<path class="st2" d="M33.1,6.6c0-0.3,0-0.6,0-0.9c0-0.6,0.2-1.2,0.5-1.7c0.5-0.8,1.2-1.3,2-1.6c0.4-0.2,0.8-0.3,1.2-0.3
							c0,0,0,0,0,0c-0.2,0.4-0.2,0.7-0.3,1.1c0,0.5-0.1,0.9-0.3,1.3c-0.2,0.4-0.5,0.6-0.9,0.9c-0.4,0.3-0.7,0.5-1.1,0.8
							c-0.2,0.1-0.3,0.3-0.5,0.5C33.8,6.6,34,5.7,34.2,5c0.2-0.5,0.5-1,0.9-1.5c-0.3,0.1-0.9,0.7-1.3,1.3C33.5,5.4,33.3,6,33.1,6.6
							C33.2,6.6,33.2,6.6,33.1,6.6z"/>
						<path class="st3" d="M32.7,7.1c-0.6-0.4-1.1-0.9-1.2-1.7c0-0.3,0-0.5,0.2-0.8c0.2-0.4,0.3-0.8,0.5-1.1
							c0.1,0.1,0.2,0.3,0.3,0.4c0.3,0.5,0.3,0.9,0.2,1.5c0,0.4-0.1,0.8-0.1,1.1C32.6,6.7,32.7,6.9,32.7,7.1z"/>
						<path class="st4" d="M30.1,6.6c0.4,0.2,0.8,0.1,1.2,0.1c0.7,0.1,1.1,0.4,1.4,1C32.9,8.1,33,8.5,33,8.9c0,0,0,0,0,0
							c0,0,0,0,0,0c-0.2-0.4-0.5-0.6-0.9-0.7c-0.3-0.1-0.6-0.2-0.9-0.3c-0.4-0.2-0.7-0.6-0.9-1C30.2,6.9,30.1,6.8,30.1,6.6z"/>
						<path class="st2" d="M34.6,9.5c-0.2,1.3,0,2.5,0.6,3.7c-0.4-0.1-1-0.8-1.1-1.5C33.9,10.8,34.2,9.8,34.6,9.5z"/>
						<path class="st5" d="M32.8,9.9c0,0.2-0.2,0.3-0.3,0.2c-0.2,0-0.3-0.2-0.2-0.4c0-0.2,0.2-0.3,0.4-0.2
							C32.8,9.6,32.9,9.7,32.8,9.9z"/>
						<path class="st6" d="M32.3,10.8c-0.1,0-0.2-0.2-0.2-0.3c0-0.1,0.2-0.2,0.3-0.2c0.1,0,0.2,0.2,0.2,0.3
							C32.6,10.7,32.4,10.8,32.3,10.8z"/>
						<path class="st6" d="M30.1,6c-0.1,0-0.2-0.2-0.2-0.3c0-0.1,0.2-0.2,0.3-0.2c0.1,0,0.2,0.2,0.2,0.3C30.4,5.9,30.2,6,30.1,6z"/>
						<path class="st2" d="M30.7,6.2c-0.1,0-0.2-0.1-0.2-0.3c0-0.1,0.2-0.2,0.3-0.2C31,5.8,31,5.9,31,6C31,6.1,30.9,6.2,30.7,6.2z"
							/>
						<path class="st4" d="M32.5,11.2c0,0.1-0.1,0.2-0.3,0.2c-0.1,0-0.2-0.1-0.2-0.3c0-0.1,0.2-0.2,0.3-0.2
							C32.5,11,32.6,11.1,32.5,11.2z"/>
						<path class="st6" d="M32.5,11.5c0.1,0,0.2,0.1,0.1,0.2c0,0.1-0.1,0.2-0.2,0.1c-0.1,0-0.2-0.1-0.1-0.2
							C32.3,11.6,32.4,11.5,32.5,11.5z"/>
						<path class="st6" d="M31.5,6.3c0,0.1-0.1,0.2-0.2,0.1c-0.1,0-0.2-0.1-0.1-0.2c0-0.1,0.1-0.2,0.2-0.1
							C31.4,6.1,31.5,6.2,31.5,6.3z"/>
					</g>
				</g>
			</g>
			<g>
				<g>
					<path class="st3" d="M40.3,11.6c0.5-0.1,0.9,0.3,0.9,0.8c0,0.5-0.3,0.9-0.7,0.9c-0.5,0.1-0.9-0.3-1-0.8
						C39.4,12,39.8,11.6,40.3,11.6z"/>
					<path class="st6" d="M41.1,9.9c0.3-0.3,0.7-0.4,1.1-0.1c0.3,0.3,0.4,0.7,0.1,1.1c-0.3,0.3-0.8,0.4-1.1,0.1
						C40.8,10.7,40.8,10.3,41.1,9.9z"/>
					<path class="st2" d="M43.1,8.1c0.3,0,0.7,0.2,0.7,0.6c0,0.3-0.2,0.6-0.5,0.6c-0.4,0.1-0.7-0.1-0.7-0.5
						C42.5,8.4,42.7,8.2,43.1,8.1z"/>
					<path class="st1" d="M45,7.4c0,0.3-0.2,0.5-0.5,0.6C44.3,8,44,7.8,44,7.5C44,7.2,44.2,7,44.5,7C44.8,6.9,45,7.1,45,7.4z"/>
					<path class="st5" d="M46.4,6.6c0,0.2-0.1,0.4-0.4,0.5c-0.2,0-0.4-0.1-0.5-0.4c0-0.3,0.1-0.4,0.4-0.5
						C46.1,6.2,46.4,6.4,46.4,6.6z"/>
				</g>
			</g>
			<g>
				<path class="st5" d="M28.6,10c0-0.2,0.1-0.5,0.1-0.7c0-0.3-0.1-0.6-0.2-0.8c-0.1-0.2-0.2-0.2-0.3,0c-0.2,0.4-0.2,0.9,0,1.4
					c0,0.1,0.1,0.1,0.1,0.2c0,0,0,0,0,0c-0.1-0.1-0.2-0.3-0.3-0.4c-0.2-0.5-0.3-1-0.2-1.6c0.1-0.4,0.2-0.7,0.5-1
					c0.1-0.1,0.1-0.1,0.2,0c0.4,0.4,0.6,0.8,0.7,1.3C29,8.9,28.9,9.5,28.6,10C28.6,10,28.6,10,28.6,10z"/>
				<path class="st3" d="M28.9,10.3c0-0.1,0.1-0.2,0.1-0.3c0.4-0.5,0.9-0.8,1.5-0.8c0.2,0,0.2,0.1,0.2,0.2c-0.2,0.6-0.8,1-1.4,1
					c-0.1,0-0.1,0-0.2,0c0.1-0.1,0.3-0.1,0.4-0.2c0.1,0,0.4-0.4,0.4-0.5c0-0.1-0.1-0.1-0.1-0.1c-0.3,0-0.6,0.2-0.8,0.4
					C29,10.2,29,10.2,28.9,10.3C28.9,10.3,28.9,10.3,28.9,10.3z"/>
				<path class="st1" d="M27.7,10.6c-0.3,0-0.5,0-0.7,0c-0.4-0.1-0.7-0.3-0.9-0.6c-0.2-0.3-0.2-0.4,0.2-0.4c0.6-0.1,1.4,0.2,1.7,0.9
					c-0.1-0.1-0.2-0.2-0.3-0.2c-0.2-0.1-0.4-0.2-0.7-0.2c-0.1,0-0.2,0.1-0.1,0.2c0.2,0.3,0.5,0.4,0.8,0.4
					C27.6,10.6,27.6,10.6,27.7,10.6C27.6,10.6,27.6,10.6,27.7,10.6z"/>
				<path class="st6" d="M29.9,11.4c-0.4,0-0.7-0.2-0.9-0.5c0-0.1,0-0.1,0-0.1c0.4-0.1,0.8-0.1,1.2,0.3c0.2,0.2,0.2,0.3-0.1,0.3
					C30,11.4,30,11.4,29.9,11.4z"/>
				<path class="st4" d="M26.8,11.6c-0.1,0-0.2-0.1-0.3-0.1c0-0.1,0.1-0.2,0.1-0.3c0.2-0.3,0.7-0.5,1-0.4c0.1,0,0.1,0.1,0.1,0.1
					C27.6,11.4,27.3,11.6,26.8,11.6z"/>
				<path class="st4" d="M29.1,11.8c0,0.1,0,0.2-0.1,0.2c0,0-0.1,0-0.2-0.1c-0.2-0.2-0.3-0.4-0.3-0.6c0-0.1,0.1-0.1,0.2-0.1
					C29,11.3,29.1,11.5,29.1,11.8z"/>
				<path class="st6" d="M28.2,11.5c0,0.2-0.1,0.4-0.2,0.5c0,0-0.1,0.1-0.2,0.1c0,0-0.1-0.1-0.1-0.1c0-0.3,0.1-0.5,0.3-0.7
					c0.1-0.1,0.2-0.1,0.2,0.1C28.2,11.4,28.2,11.4,28.2,11.5z"/>
			</g>
			<g>
				<path class="st6" d="M26.7,3.9c0-0.3,0.1-0.6,0.1-0.9c0-0.4-0.1-0.7-0.3-1c-0.2-0.3-0.3-0.3-0.4,0c-0.3,0.6-0.2,1.2,0,1.7
					c0,0.1,0.1,0.1,0.1,0.2c0,0,0,0,0,0c-0.1-0.2-0.3-0.3-0.4-0.5c-0.3-0.7-0.4-1.3-0.3-2.1c0.1-0.5,0.3-0.9,0.6-1.3
					c0.1-0.1,0.2-0.1,0.2,0c0.5,0.5,0.8,1,0.9,1.7C27.3,2.5,27.1,3.2,26.7,3.9C26.7,3.9,26.7,3.9,26.7,3.9z"/>
				<path class="st4" d="M27.1,4.2c0-0.1,0.1-0.2,0.1-0.3c0.5-0.6,1.1-1.1,2-1c0.3,0,0.3,0.1,0.2,0.3c-0.3,0.7-1,1.3-1.8,1.3
					c-0.1,0-0.2,0-0.3,0c0.2-0.1,0.3-0.1,0.5-0.2c0.1,0,0.5-0.5,0.5-0.6c0-0.1-0.1-0.1-0.2-0.1c-0.4,0-0.7,0.2-1,0.5
					C27.2,4.1,27.2,4.2,27.1,4.2C27.2,4.2,27.2,4.2,27.1,4.2z"/>
				<path class="st5" d="M25.6,4.7c-0.3,0.1-0.6,0-0.9,0c-0.5-0.1-0.9-0.4-1.2-0.8c-0.3-0.3-0.2-0.5,0.2-0.5
					c0.8-0.2,1.8,0.3,2.1,1.1c-0.2-0.1-0.3-0.2-0.4-0.3c-0.3-0.2-0.5-0.2-0.8-0.2c-0.2,0-0.2,0.1-0.1,0.2c0.2,0.3,0.6,0.5,1,0.6
					C25.4,4.6,25.5,4.6,25.6,4.7C25.5,4.6,25.5,4.6,25.6,4.7z"/>
				<path class="st4" d="M28.4,5.7c-0.5,0-0.9-0.2-1.2-0.6c-0.1-0.1,0-0.1,0.1-0.2c0.6-0.2,1.1-0.1,1.5,0.4C29,5.5,29,5.6,28.7,5.7
					C28.6,5.7,28.5,5.7,28.4,5.7z"/>
				<path class="st3" d="M24.4,6c-0.1,0-0.2-0.1-0.3-0.1c0-0.1,0.1-0.2,0.2-0.4c0.3-0.4,0.9-0.6,1.3-0.5c0.1,0,0.2,0.1,0.1,0.2
					C25.5,5.7,25.1,5.9,24.4,6z"/>
				<path class="st1" d="M27.5,6.2c0,0.1,0,0.2-0.1,0.2c-0.1,0-0.2,0-0.2-0.1c-0.3-0.2-0.4-0.5-0.3-0.8c0-0.1,0.1-0.2,0.2-0.1
					C27.3,5.6,27.4,5.8,27.5,6.2z"/>
				<path class="st6" d="M26.3,5.8c0,0.3-0.1,0.5-0.3,0.7c-0.1,0-0.1,0.1-0.2,0.1c0,0-0.1-0.1-0.1-0.2c0-0.3,0.1-0.6,0.3-0.8
					c0.1-0.1,0.2-0.1,0.2,0.1C26.3,5.6,26.3,5.7,26.3,5.8z"/>
			</g>
		</g>
	</g>
</g>
</svg>
